G04 MADE WITH FRITZING*
G04 WWW.FRITZING.ORG*
G04 DOUBLE SIDED*
G04 HOLES PLATED*
G04 CONTOUR ON CENTER OF CONTOUR VECTOR*
%ASAXBY*%
%FSLAX23Y23*%
%MOIN*%
%OFA0B0*%
%SFA1.0B1.0*%
%ADD10C,0.010000*%
%ADD11C,0.005000*%
%ADD12R,0.001000X0.001000*%
%LNSILK1*%
G90*
G70*
G54D10*
X269Y208D02*
X469Y208D01*
D02*
X469Y208D02*
X469Y142D01*
D02*
X469Y142D02*
X269Y142D01*
D02*
X269Y142D02*
X269Y208D01*
D02*
X610Y325D02*
X310Y325D01*
D02*
X310Y325D02*
X310Y225D01*
D02*
X310Y225D02*
X610Y225D01*
D02*
X610Y225D02*
X610Y325D01*
D02*
X110Y25D02*
X310Y25D01*
D02*
X310Y25D02*
X310Y125D01*
D02*
X310Y125D02*
X110Y125D01*
D02*
X110Y125D02*
X110Y25D01*
G54D11*
D02*
X145Y25D02*
X110Y60D01*
G54D10*
D02*
X410Y725D02*
X110Y725D01*
D02*
X110Y725D02*
X110Y625D01*
D02*
X110Y625D02*
X410Y625D01*
D02*
X410Y625D02*
X410Y725D01*
G54D11*
D02*
X375Y725D02*
X410Y690D01*
G36*
X517Y805D02*
X517Y801D01*
X509Y801D01*
X509Y797D01*
X547Y797D01*
X547Y784D01*
X581Y784D01*
X581Y780D01*
X585Y780D01*
X585Y775D01*
X581Y775D01*
X581Y771D01*
X577Y771D01*
X577Y767D01*
X573Y767D01*
X573Y763D01*
X619Y763D01*
X619Y767D01*
X615Y767D01*
X615Y771D01*
X611Y771D01*
X611Y775D01*
X607Y775D01*
X607Y780D01*
X602Y780D01*
X602Y784D01*
X598Y784D01*
X598Y788D01*
X594Y788D01*
X594Y792D01*
X585Y792D01*
X585Y797D01*
X577Y797D01*
X577Y801D01*
X568Y801D01*
X568Y805D01*
X517Y805D01*
G37*
D02*
G36*
X500Y797D02*
X500Y792D01*
X492Y792D01*
X492Y788D01*
X488Y788D01*
X488Y784D01*
X509Y784D01*
X509Y780D01*
X513Y780D01*
X513Y775D01*
X543Y775D01*
X543Y780D01*
X539Y780D01*
X539Y797D01*
X500Y797D01*
G37*
D02*
G36*
X483Y784D02*
X483Y780D01*
X479Y780D01*
X479Y775D01*
X475Y775D01*
X475Y771D01*
X471Y771D01*
X471Y767D01*
X509Y767D01*
X509Y771D01*
X505Y771D01*
X505Y775D01*
X500Y775D01*
X500Y780D01*
X505Y780D01*
X505Y784D01*
X483Y784D01*
G37*
D02*
G36*
X547Y784D02*
X547Y775D01*
X573Y775D01*
X573Y780D01*
X577Y780D01*
X577Y784D01*
X547Y784D01*
G37*
D02*
G36*
X517Y775D02*
X517Y771D01*
X568Y771D01*
X568Y775D01*
X517Y775D01*
G37*
D02*
G36*
X517Y775D02*
X517Y771D01*
X568Y771D01*
X568Y775D01*
X517Y775D01*
G37*
D02*
G36*
X517Y771D02*
X517Y767D01*
X530Y767D01*
X530Y771D01*
X517Y771D01*
G37*
D02*
G36*
X556Y771D02*
X556Y767D01*
X564Y767D01*
X564Y763D01*
X568Y763D01*
X568Y771D01*
X556Y771D01*
G37*
D02*
G36*
X466Y767D02*
X466Y763D01*
X522Y763D01*
X522Y767D01*
X466Y767D01*
G37*
D02*
G36*
X466Y767D02*
X466Y763D01*
X522Y763D01*
X522Y767D01*
X466Y767D01*
G37*
D02*
G36*
X466Y763D02*
X466Y758D01*
X462Y758D01*
X462Y750D01*
X458Y750D01*
X458Y746D01*
X505Y746D01*
X505Y737D01*
X513Y737D01*
X513Y754D01*
X517Y754D01*
X517Y763D01*
X466Y763D01*
G37*
D02*
G36*
X568Y763D02*
X568Y754D01*
X573Y754D01*
X573Y746D01*
X598Y746D01*
X598Y737D01*
X628Y737D01*
X628Y750D01*
X624Y750D01*
X624Y758D01*
X619Y758D01*
X619Y763D01*
X568Y763D01*
G37*
D02*
G36*
X458Y746D02*
X458Y737D01*
X488Y737D01*
X488Y746D01*
X458Y746D01*
G37*
D02*
G36*
X573Y746D02*
X573Y737D01*
X581Y737D01*
X581Y746D01*
X573Y746D01*
G37*
D02*
G36*
X458Y737D02*
X458Y733D01*
X513Y733D01*
X513Y737D01*
X458Y737D01*
G37*
D02*
G36*
X458Y737D02*
X458Y733D01*
X513Y733D01*
X513Y737D01*
X458Y737D01*
G37*
D02*
G36*
X573Y737D02*
X573Y733D01*
X628Y733D01*
X628Y737D01*
X573Y737D01*
G37*
D02*
G36*
X573Y737D02*
X573Y733D01*
X628Y733D01*
X628Y737D01*
X573Y737D01*
G37*
D02*
G36*
X454Y733D02*
X454Y703D01*
X458Y703D01*
X458Y686D01*
X462Y686D01*
X462Y678D01*
X466Y678D01*
X466Y669D01*
X471Y669D01*
X471Y665D01*
X475Y665D01*
X475Y661D01*
X479Y661D01*
X479Y656D01*
X483Y656D01*
X483Y652D01*
X488Y652D01*
X488Y648D01*
X492Y648D01*
X492Y644D01*
X517Y644D01*
X517Y665D01*
X522Y665D01*
X522Y669D01*
X509Y669D01*
X509Y673D01*
X505Y673D01*
X505Y686D01*
X513Y686D01*
X513Y733D01*
X454Y733D01*
G37*
D02*
G36*
X573Y733D02*
X573Y686D01*
X581Y686D01*
X581Y673D01*
X577Y673D01*
X577Y669D01*
X564Y669D01*
X564Y665D01*
X568Y665D01*
X568Y639D01*
X564Y639D01*
X564Y635D01*
X581Y635D01*
X581Y639D01*
X590Y639D01*
X590Y644D01*
X594Y644D01*
X594Y648D01*
X598Y648D01*
X598Y652D01*
X602Y652D01*
X602Y656D01*
X607Y656D01*
X607Y661D01*
X611Y661D01*
X611Y665D01*
X615Y665D01*
X615Y669D01*
X619Y669D01*
X619Y678D01*
X624Y678D01*
X624Y686D01*
X628Y686D01*
X628Y703D01*
X632Y703D01*
X632Y733D01*
X573Y733D01*
G37*
D02*
G36*
X530Y669D02*
X530Y644D01*
X556Y644D01*
X556Y669D01*
X530Y669D01*
G37*
D02*
G36*
X500Y644D02*
X500Y639D01*
X556Y639D01*
X556Y644D01*
X500Y644D01*
G37*
D02*
G36*
X500Y644D02*
X500Y639D01*
X556Y639D01*
X556Y644D01*
X500Y644D01*
G37*
D02*
G36*
X509Y639D02*
X509Y635D01*
X556Y635D01*
X556Y639D01*
X509Y639D01*
G37*
D02*
G36*
X517Y635D02*
X517Y631D01*
X568Y631D01*
X568Y635D01*
X517Y635D01*
G37*
D02*
G36*
X517Y635D02*
X517Y631D01*
X568Y631D01*
X568Y635D01*
X517Y635D01*
G37*
D02*
G36*
X539Y631D02*
X539Y627D01*
X547Y627D01*
X547Y631D01*
X539Y631D01*
G37*
D02*
G36*
X526Y720D02*
X526Y690D01*
X522Y690D01*
X522Y686D01*
X534Y686D01*
X534Y690D01*
X530Y690D01*
X530Y699D01*
X539Y699D01*
X539Y707D01*
X543Y707D01*
X543Y720D01*
X526Y720D01*
G37*
D02*
G36*
X547Y720D02*
X547Y699D01*
X556Y699D01*
X556Y690D01*
X551Y690D01*
X551Y686D01*
X564Y686D01*
X564Y720D01*
X547Y720D01*
G37*
D02*
G36*
X522Y673D02*
X522Y669D01*
X526Y669D01*
X526Y673D01*
X522Y673D01*
G37*
D02*
G36*
X560Y673D02*
X560Y669D01*
X564Y669D01*
X564Y673D01*
X560Y673D01*
G37*
D02*
G54D12*
X1Y826D02*
X669Y826D01*
X1Y825D02*
X669Y825D01*
X1Y824D02*
X669Y824D01*
X1Y823D02*
X669Y823D01*
X1Y822D02*
X669Y822D01*
X1Y821D02*
X669Y821D01*
X1Y820D02*
X669Y820D01*
X1Y819D02*
X669Y819D01*
X1Y818D02*
X8Y818D01*
X662Y818D02*
X669Y818D01*
X1Y817D02*
X8Y817D01*
X662Y817D02*
X669Y817D01*
X1Y816D02*
X8Y816D01*
X662Y816D02*
X669Y816D01*
X1Y815D02*
X8Y815D01*
X662Y815D02*
X669Y815D01*
X1Y814D02*
X8Y814D01*
X662Y814D02*
X669Y814D01*
X1Y813D02*
X8Y813D01*
X662Y813D02*
X669Y813D01*
X1Y812D02*
X8Y812D01*
X662Y812D02*
X669Y812D01*
X1Y811D02*
X8Y811D01*
X662Y811D02*
X669Y811D01*
X1Y810D02*
X8Y810D01*
X662Y810D02*
X669Y810D01*
X1Y809D02*
X8Y809D01*
X662Y809D02*
X669Y809D01*
X1Y808D02*
X8Y808D01*
X662Y808D02*
X669Y808D01*
X1Y807D02*
X8Y807D01*
X154Y807D02*
X177Y807D01*
X662Y807D02*
X669Y807D01*
X1Y806D02*
X8Y806D01*
X152Y806D02*
X179Y806D01*
X662Y806D02*
X669Y806D01*
X1Y805D02*
X8Y805D01*
X151Y805D02*
X180Y805D01*
X662Y805D02*
X669Y805D01*
X1Y804D02*
X8Y804D01*
X150Y804D02*
X181Y804D01*
X662Y804D02*
X669Y804D01*
X1Y803D02*
X8Y803D01*
X150Y803D02*
X181Y803D01*
X662Y803D02*
X669Y803D01*
X1Y802D02*
X8Y802D01*
X149Y802D02*
X182Y802D01*
X662Y802D02*
X669Y802D01*
X1Y801D02*
X8Y801D01*
X149Y801D02*
X182Y801D01*
X662Y801D02*
X669Y801D01*
X1Y800D02*
X8Y800D01*
X149Y800D02*
X155Y800D01*
X176Y800D02*
X183Y800D01*
X662Y800D02*
X669Y800D01*
X1Y799D02*
X8Y799D01*
X149Y799D02*
X156Y799D01*
X177Y799D02*
X183Y799D01*
X662Y799D02*
X669Y799D01*
X1Y798D02*
X8Y798D01*
X149Y798D02*
X156Y798D01*
X177Y798D02*
X183Y798D01*
X662Y798D02*
X669Y798D01*
X1Y797D02*
X8Y797D01*
X150Y797D02*
X157Y797D01*
X177Y797D02*
X182Y797D01*
X364Y797D02*
X368Y797D01*
X662Y797D02*
X669Y797D01*
X1Y796D02*
X8Y796D01*
X150Y796D02*
X158Y796D01*
X178Y796D02*
X182Y796D01*
X363Y796D02*
X368Y796D01*
X662Y796D02*
X669Y796D01*
X1Y795D02*
X8Y795D01*
X151Y795D02*
X159Y795D01*
X180Y795D02*
X180Y795D01*
X363Y795D02*
X369Y795D01*
X662Y795D02*
X669Y795D01*
X1Y794D02*
X8Y794D01*
X152Y794D02*
X160Y794D01*
X363Y794D02*
X369Y794D01*
X662Y794D02*
X669Y794D01*
X1Y793D02*
X8Y793D01*
X152Y793D02*
X160Y793D01*
X363Y793D02*
X369Y793D01*
X662Y793D02*
X669Y793D01*
X1Y792D02*
X8Y792D01*
X153Y792D02*
X161Y792D01*
X363Y792D02*
X369Y792D01*
X662Y792D02*
X669Y792D01*
X1Y791D02*
X8Y791D01*
X154Y791D02*
X162Y791D01*
X363Y791D02*
X369Y791D01*
X662Y791D02*
X669Y791D01*
X1Y790D02*
X8Y790D01*
X155Y790D02*
X163Y790D01*
X363Y790D02*
X369Y790D01*
X662Y790D02*
X669Y790D01*
X1Y789D02*
X8Y789D01*
X155Y789D02*
X163Y789D01*
X363Y789D02*
X369Y789D01*
X662Y789D02*
X669Y789D01*
X1Y788D02*
X8Y788D01*
X156Y788D02*
X164Y788D01*
X363Y788D02*
X369Y788D01*
X662Y788D02*
X669Y788D01*
X1Y787D02*
X8Y787D01*
X157Y787D02*
X165Y787D01*
X363Y787D02*
X369Y787D01*
X662Y787D02*
X669Y787D01*
X1Y786D02*
X8Y786D01*
X158Y786D02*
X166Y786D01*
X363Y786D02*
X369Y786D01*
X662Y786D02*
X669Y786D01*
X1Y785D02*
X8Y785D01*
X159Y785D02*
X167Y785D01*
X363Y785D02*
X369Y785D01*
X662Y785D02*
X669Y785D01*
X1Y784D02*
X8Y784D01*
X159Y784D02*
X167Y784D01*
X251Y784D02*
X280Y784D01*
X351Y784D02*
X380Y784D01*
X662Y784D02*
X669Y784D01*
X1Y783D02*
X8Y783D01*
X160Y783D02*
X168Y783D01*
X250Y783D02*
X282Y783D01*
X350Y783D02*
X382Y783D01*
X662Y783D02*
X669Y783D01*
X1Y782D02*
X8Y782D01*
X161Y782D02*
X169Y782D01*
X249Y782D02*
X282Y782D01*
X349Y782D02*
X382Y782D01*
X662Y782D02*
X669Y782D01*
X1Y781D02*
X8Y781D01*
X162Y781D02*
X170Y781D01*
X249Y781D02*
X283Y781D01*
X349Y781D02*
X383Y781D01*
X662Y781D02*
X669Y781D01*
X1Y780D02*
X8Y780D01*
X162Y780D02*
X170Y780D01*
X249Y780D02*
X283Y780D01*
X349Y780D02*
X382Y780D01*
X662Y780D02*
X669Y780D01*
X1Y779D02*
X8Y779D01*
X163Y779D02*
X171Y779D01*
X249Y779D02*
X283Y779D01*
X350Y779D02*
X382Y779D01*
X662Y779D02*
X669Y779D01*
X1Y778D02*
X8Y778D01*
X164Y778D02*
X172Y778D01*
X249Y778D02*
X283Y778D01*
X350Y778D02*
X381Y778D01*
X662Y778D02*
X669Y778D01*
X1Y777D02*
X8Y777D01*
X165Y777D02*
X173Y777D01*
X249Y777D02*
X282Y777D01*
X363Y777D02*
X369Y777D01*
X662Y777D02*
X669Y777D01*
X1Y776D02*
X8Y776D01*
X165Y776D02*
X174Y776D01*
X250Y776D02*
X282Y776D01*
X363Y776D02*
X369Y776D01*
X662Y776D02*
X669Y776D01*
X1Y775D02*
X8Y775D01*
X166Y775D02*
X174Y775D01*
X251Y775D02*
X281Y775D01*
X363Y775D02*
X369Y775D01*
X662Y775D02*
X669Y775D01*
X1Y774D02*
X8Y774D01*
X167Y774D02*
X175Y774D01*
X363Y774D02*
X369Y774D01*
X662Y774D02*
X669Y774D01*
X1Y773D02*
X8Y773D01*
X168Y773D02*
X176Y773D01*
X363Y773D02*
X369Y773D01*
X662Y773D02*
X669Y773D01*
X1Y772D02*
X8Y772D01*
X169Y772D02*
X177Y772D01*
X363Y772D02*
X369Y772D01*
X662Y772D02*
X669Y772D01*
X1Y771D02*
X8Y771D01*
X169Y771D02*
X177Y771D01*
X363Y771D02*
X369Y771D01*
X662Y771D02*
X669Y771D01*
X1Y770D02*
X8Y770D01*
X170Y770D02*
X178Y770D01*
X363Y770D02*
X369Y770D01*
X662Y770D02*
X669Y770D01*
X1Y769D02*
X8Y769D01*
X171Y769D02*
X179Y769D01*
X363Y769D02*
X369Y769D01*
X662Y769D02*
X669Y769D01*
X1Y768D02*
X8Y768D01*
X172Y768D02*
X180Y768D01*
X363Y768D02*
X369Y768D01*
X662Y768D02*
X669Y768D01*
X1Y767D02*
X8Y767D01*
X172Y767D02*
X181Y767D01*
X363Y767D02*
X369Y767D01*
X662Y767D02*
X669Y767D01*
X1Y766D02*
X8Y766D01*
X151Y766D02*
X153Y766D01*
X173Y766D02*
X181Y766D01*
X363Y766D02*
X369Y766D01*
X662Y766D02*
X669Y766D01*
X1Y765D02*
X8Y765D01*
X150Y765D02*
X154Y765D01*
X174Y765D02*
X182Y765D01*
X363Y765D02*
X368Y765D01*
X662Y765D02*
X669Y765D01*
X1Y764D02*
X8Y764D01*
X149Y764D02*
X155Y764D01*
X175Y764D02*
X182Y764D01*
X365Y764D02*
X367Y764D01*
X662Y764D02*
X669Y764D01*
X1Y763D02*
X8Y763D01*
X149Y763D02*
X155Y763D01*
X176Y763D02*
X183Y763D01*
X662Y763D02*
X669Y763D01*
X1Y762D02*
X8Y762D01*
X149Y762D02*
X155Y762D01*
X176Y762D02*
X183Y762D01*
X662Y762D02*
X669Y762D01*
X1Y761D02*
X8Y761D01*
X149Y761D02*
X156Y761D01*
X176Y761D02*
X183Y761D01*
X662Y761D02*
X669Y761D01*
X1Y760D02*
X8Y760D01*
X150Y760D02*
X182Y760D01*
X662Y760D02*
X669Y760D01*
X1Y759D02*
X8Y759D01*
X150Y759D02*
X182Y759D01*
X662Y759D02*
X669Y759D01*
X1Y758D02*
X8Y758D01*
X151Y758D02*
X182Y758D01*
X662Y758D02*
X669Y758D01*
X1Y757D02*
X8Y757D01*
X151Y757D02*
X181Y757D01*
X662Y757D02*
X669Y757D01*
X1Y756D02*
X8Y756D01*
X152Y756D02*
X180Y756D01*
X662Y756D02*
X669Y756D01*
X1Y755D02*
X8Y755D01*
X154Y755D02*
X179Y755D01*
X662Y755D02*
X669Y755D01*
X1Y754D02*
X8Y754D01*
X156Y754D02*
X177Y754D01*
X662Y754D02*
X669Y754D01*
X1Y753D02*
X8Y753D01*
X662Y753D02*
X669Y753D01*
X1Y752D02*
X8Y752D01*
X662Y752D02*
X669Y752D01*
X1Y751D02*
X8Y751D01*
X662Y751D02*
X669Y751D01*
X1Y750D02*
X8Y750D01*
X662Y750D02*
X669Y750D01*
X1Y749D02*
X8Y749D01*
X662Y749D02*
X669Y749D01*
X1Y748D02*
X8Y748D01*
X662Y748D02*
X669Y748D01*
X1Y747D02*
X8Y747D01*
X662Y747D02*
X669Y747D01*
X1Y746D02*
X8Y746D01*
X662Y746D02*
X669Y746D01*
X1Y745D02*
X8Y745D01*
X662Y745D02*
X669Y745D01*
X1Y744D02*
X8Y744D01*
X662Y744D02*
X669Y744D01*
X1Y743D02*
X8Y743D01*
X662Y743D02*
X669Y743D01*
X1Y742D02*
X8Y742D01*
X662Y742D02*
X669Y742D01*
X1Y741D02*
X8Y741D01*
X662Y741D02*
X669Y741D01*
X1Y740D02*
X8Y740D01*
X662Y740D02*
X669Y740D01*
X1Y739D02*
X8Y739D01*
X662Y739D02*
X669Y739D01*
X1Y738D02*
X8Y738D01*
X662Y738D02*
X669Y738D01*
X1Y737D02*
X8Y737D01*
X662Y737D02*
X669Y737D01*
X1Y736D02*
X8Y736D01*
X662Y736D02*
X669Y736D01*
X1Y735D02*
X8Y735D01*
X662Y735D02*
X669Y735D01*
X1Y734D02*
X8Y734D01*
X662Y734D02*
X669Y734D01*
X1Y733D02*
X8Y733D01*
X662Y733D02*
X669Y733D01*
X1Y732D02*
X8Y732D01*
X662Y732D02*
X669Y732D01*
X1Y731D02*
X8Y731D01*
X662Y731D02*
X669Y731D01*
X1Y730D02*
X8Y730D01*
X662Y730D02*
X669Y730D01*
X1Y729D02*
X8Y729D01*
X662Y729D02*
X669Y729D01*
X1Y728D02*
X8Y728D01*
X662Y728D02*
X669Y728D01*
X1Y727D02*
X8Y727D01*
X662Y727D02*
X669Y727D01*
X1Y726D02*
X8Y726D01*
X662Y726D02*
X669Y726D01*
X1Y725D02*
X8Y725D01*
X662Y725D02*
X669Y725D01*
X1Y724D02*
X8Y724D01*
X662Y724D02*
X669Y724D01*
X1Y723D02*
X8Y723D01*
X662Y723D02*
X669Y723D01*
X1Y722D02*
X8Y722D01*
X662Y722D02*
X669Y722D01*
X1Y721D02*
X8Y721D01*
X662Y721D02*
X669Y721D01*
X1Y720D02*
X8Y720D01*
X662Y720D02*
X669Y720D01*
X1Y719D02*
X8Y719D01*
X662Y719D02*
X669Y719D01*
X1Y718D02*
X8Y718D01*
X662Y718D02*
X669Y718D01*
X1Y717D02*
X8Y717D01*
X662Y717D02*
X669Y717D01*
X1Y716D02*
X8Y716D01*
X662Y716D02*
X669Y716D01*
X1Y715D02*
X8Y715D01*
X662Y715D02*
X669Y715D01*
X1Y714D02*
X8Y714D01*
X662Y714D02*
X669Y714D01*
X1Y713D02*
X8Y713D01*
X662Y713D02*
X669Y713D01*
X1Y712D02*
X8Y712D01*
X662Y712D02*
X669Y712D01*
X1Y711D02*
X8Y711D01*
X662Y711D02*
X669Y711D01*
X1Y710D02*
X8Y710D01*
X662Y710D02*
X669Y710D01*
X1Y709D02*
X8Y709D01*
X662Y709D02*
X669Y709D01*
X1Y708D02*
X8Y708D01*
X662Y708D02*
X669Y708D01*
X1Y707D02*
X8Y707D01*
X662Y707D02*
X669Y707D01*
X1Y706D02*
X8Y706D01*
X662Y706D02*
X669Y706D01*
X1Y705D02*
X8Y705D01*
X662Y705D02*
X669Y705D01*
X1Y704D02*
X8Y704D01*
X662Y704D02*
X669Y704D01*
X1Y703D02*
X8Y703D01*
X662Y703D02*
X669Y703D01*
X1Y702D02*
X8Y702D01*
X662Y702D02*
X669Y702D01*
X1Y701D02*
X8Y701D01*
X662Y701D02*
X669Y701D01*
X1Y700D02*
X8Y700D01*
X662Y700D02*
X669Y700D01*
X1Y699D02*
X8Y699D01*
X662Y699D02*
X669Y699D01*
X1Y698D02*
X8Y698D01*
X662Y698D02*
X669Y698D01*
X1Y697D02*
X8Y697D01*
X662Y697D02*
X669Y697D01*
X1Y696D02*
X8Y696D01*
X662Y696D02*
X669Y696D01*
X1Y695D02*
X8Y695D01*
X662Y695D02*
X669Y695D01*
X1Y694D02*
X8Y694D01*
X662Y694D02*
X669Y694D01*
X1Y693D02*
X8Y693D01*
X662Y693D02*
X669Y693D01*
X1Y692D02*
X8Y692D01*
X662Y692D02*
X669Y692D01*
X1Y691D02*
X8Y691D01*
X662Y691D02*
X669Y691D01*
X1Y690D02*
X8Y690D01*
X662Y690D02*
X669Y690D01*
X1Y689D02*
X8Y689D01*
X662Y689D02*
X669Y689D01*
X1Y688D02*
X8Y688D01*
X662Y688D02*
X669Y688D01*
X1Y687D02*
X8Y687D01*
X662Y687D02*
X669Y687D01*
X1Y686D02*
X8Y686D01*
X662Y686D02*
X669Y686D01*
X1Y685D02*
X8Y685D01*
X662Y685D02*
X669Y685D01*
X1Y684D02*
X8Y684D01*
X662Y684D02*
X669Y684D01*
X1Y683D02*
X8Y683D01*
X662Y683D02*
X669Y683D01*
X1Y682D02*
X8Y682D01*
X662Y682D02*
X669Y682D01*
X1Y681D02*
X8Y681D01*
X662Y681D02*
X669Y681D01*
X1Y680D02*
X8Y680D01*
X662Y680D02*
X669Y680D01*
X1Y679D02*
X8Y679D01*
X662Y679D02*
X669Y679D01*
X1Y678D02*
X8Y678D01*
X662Y678D02*
X669Y678D01*
X1Y677D02*
X8Y677D01*
X662Y677D02*
X669Y677D01*
X1Y676D02*
X8Y676D01*
X662Y676D02*
X669Y676D01*
X1Y675D02*
X8Y675D01*
X662Y675D02*
X669Y675D01*
X1Y674D02*
X8Y674D01*
X662Y674D02*
X669Y674D01*
X1Y673D02*
X8Y673D01*
X662Y673D02*
X669Y673D01*
X1Y672D02*
X8Y672D01*
X662Y672D02*
X669Y672D01*
X1Y671D02*
X8Y671D01*
X662Y671D02*
X669Y671D01*
X1Y670D02*
X8Y670D01*
X662Y670D02*
X669Y670D01*
X1Y669D02*
X8Y669D01*
X662Y669D02*
X669Y669D01*
X1Y668D02*
X8Y668D01*
X662Y668D02*
X669Y668D01*
X1Y667D02*
X8Y667D01*
X662Y667D02*
X669Y667D01*
X1Y666D02*
X8Y666D01*
X662Y666D02*
X669Y666D01*
X1Y665D02*
X8Y665D01*
X662Y665D02*
X669Y665D01*
X1Y664D02*
X8Y664D01*
X662Y664D02*
X669Y664D01*
X1Y663D02*
X8Y663D01*
X662Y663D02*
X669Y663D01*
X1Y662D02*
X8Y662D01*
X662Y662D02*
X669Y662D01*
X1Y661D02*
X8Y661D01*
X662Y661D02*
X669Y661D01*
X1Y660D02*
X8Y660D01*
X662Y660D02*
X669Y660D01*
X1Y659D02*
X8Y659D01*
X662Y659D02*
X669Y659D01*
X1Y658D02*
X8Y658D01*
X662Y658D02*
X669Y658D01*
X1Y657D02*
X8Y657D01*
X662Y657D02*
X669Y657D01*
X1Y656D02*
X8Y656D01*
X662Y656D02*
X669Y656D01*
X1Y655D02*
X8Y655D01*
X662Y655D02*
X669Y655D01*
X1Y654D02*
X8Y654D01*
X662Y654D02*
X669Y654D01*
X1Y653D02*
X8Y653D01*
X662Y653D02*
X669Y653D01*
X1Y652D02*
X8Y652D01*
X662Y652D02*
X669Y652D01*
X1Y651D02*
X8Y651D01*
X662Y651D02*
X669Y651D01*
X1Y650D02*
X8Y650D01*
X662Y650D02*
X669Y650D01*
X1Y649D02*
X8Y649D01*
X662Y649D02*
X669Y649D01*
X1Y648D02*
X8Y648D01*
X662Y648D02*
X669Y648D01*
X1Y647D02*
X8Y647D01*
X662Y647D02*
X669Y647D01*
X1Y646D02*
X8Y646D01*
X662Y646D02*
X669Y646D01*
X1Y645D02*
X8Y645D01*
X662Y645D02*
X669Y645D01*
X1Y644D02*
X8Y644D01*
X662Y644D02*
X669Y644D01*
X1Y643D02*
X8Y643D01*
X662Y643D02*
X669Y643D01*
X1Y642D02*
X8Y642D01*
X662Y642D02*
X669Y642D01*
X1Y641D02*
X8Y641D01*
X662Y641D02*
X669Y641D01*
X1Y640D02*
X8Y640D01*
X662Y640D02*
X669Y640D01*
X1Y639D02*
X8Y639D01*
X662Y639D02*
X669Y639D01*
X1Y638D02*
X8Y638D01*
X662Y638D02*
X669Y638D01*
X1Y637D02*
X8Y637D01*
X662Y637D02*
X669Y637D01*
X1Y636D02*
X8Y636D01*
X451Y636D02*
X469Y636D01*
X662Y636D02*
X669Y636D01*
X1Y635D02*
X8Y635D01*
X446Y635D02*
X474Y635D01*
X662Y635D02*
X669Y635D01*
X1Y634D02*
X8Y634D01*
X442Y634D02*
X478Y634D01*
X662Y634D02*
X669Y634D01*
X1Y633D02*
X8Y633D01*
X440Y633D02*
X480Y633D01*
X662Y633D02*
X669Y633D01*
X1Y632D02*
X8Y632D01*
X437Y632D02*
X483Y632D01*
X662Y632D02*
X669Y632D01*
X1Y631D02*
X8Y631D01*
X435Y631D02*
X485Y631D01*
X662Y631D02*
X669Y631D01*
X1Y630D02*
X8Y630D01*
X433Y630D02*
X487Y630D01*
X662Y630D02*
X669Y630D01*
X1Y629D02*
X8Y629D01*
X148Y629D02*
X172Y629D01*
X431Y629D02*
X489Y629D01*
X662Y629D02*
X669Y629D01*
X1Y628D02*
X8Y628D01*
X142Y628D02*
X178Y628D01*
X429Y628D02*
X491Y628D01*
X662Y628D02*
X669Y628D01*
X1Y627D02*
X8Y627D01*
X137Y627D02*
X183Y627D01*
X427Y627D02*
X493Y627D01*
X662Y627D02*
X669Y627D01*
X1Y626D02*
X8Y626D01*
X133Y626D02*
X187Y626D01*
X426Y626D02*
X450Y626D01*
X469Y626D02*
X494Y626D01*
X662Y626D02*
X669Y626D01*
X1Y625D02*
X8Y625D01*
X129Y625D02*
X191Y625D01*
X424Y625D02*
X446Y625D01*
X474Y625D02*
X496Y625D01*
X662Y625D02*
X669Y625D01*
X1Y624D02*
X8Y624D01*
X126Y624D02*
X194Y624D01*
X423Y624D02*
X442Y624D01*
X477Y624D02*
X497Y624D01*
X662Y624D02*
X669Y624D01*
X1Y623D02*
X8Y623D01*
X124Y623D02*
X196Y623D01*
X422Y623D02*
X440Y623D01*
X480Y623D02*
X498Y623D01*
X662Y623D02*
X669Y623D01*
X1Y622D02*
X8Y622D01*
X121Y622D02*
X199Y622D01*
X420Y622D02*
X438Y622D01*
X482Y622D02*
X500Y622D01*
X662Y622D02*
X669Y622D01*
X1Y621D02*
X8Y621D01*
X119Y621D02*
X201Y621D01*
X419Y621D02*
X435Y621D01*
X484Y621D02*
X501Y621D01*
X662Y621D02*
X669Y621D01*
X1Y620D02*
X8Y620D01*
X117Y620D02*
X203Y620D01*
X418Y620D02*
X434Y620D01*
X486Y620D02*
X502Y620D01*
X662Y620D02*
X669Y620D01*
X1Y619D02*
X8Y619D01*
X115Y619D02*
X147Y619D01*
X173Y619D02*
X205Y619D01*
X417Y619D02*
X432Y619D01*
X488Y619D02*
X503Y619D01*
X662Y619D02*
X669Y619D01*
X1Y618D02*
X8Y618D01*
X113Y618D02*
X141Y618D01*
X179Y618D02*
X208Y618D01*
X416Y618D02*
X430Y618D01*
X489Y618D02*
X504Y618D01*
X662Y618D02*
X669Y618D01*
X1Y617D02*
X8Y617D01*
X111Y617D02*
X117Y617D01*
X203Y617D02*
X210Y617D01*
X415Y617D02*
X429Y617D01*
X491Y617D02*
X505Y617D01*
X662Y617D02*
X669Y617D01*
X1Y616D02*
X8Y616D01*
X109Y616D02*
X117Y616D01*
X203Y616D02*
X211Y616D01*
X414Y616D02*
X428Y616D01*
X492Y616D02*
X506Y616D01*
X662Y616D02*
X669Y616D01*
X1Y615D02*
X8Y615D01*
X107Y615D02*
X117Y615D01*
X203Y615D02*
X213Y615D01*
X413Y615D02*
X426Y615D01*
X493Y615D02*
X507Y615D01*
X662Y615D02*
X669Y615D01*
X1Y614D02*
X8Y614D01*
X106Y614D02*
X117Y614D01*
X203Y614D02*
X215Y614D01*
X412Y614D02*
X425Y614D01*
X495Y614D02*
X507Y614D01*
X662Y614D02*
X669Y614D01*
X1Y613D02*
X8Y613D01*
X104Y613D02*
X117Y613D01*
X203Y613D02*
X216Y613D01*
X412Y613D02*
X424Y613D01*
X496Y613D02*
X508Y613D01*
X662Y613D02*
X669Y613D01*
X1Y612D02*
X8Y612D01*
X102Y612D02*
X117Y612D01*
X203Y612D02*
X218Y612D01*
X411Y612D02*
X423Y612D01*
X497Y612D02*
X509Y612D01*
X662Y612D02*
X669Y612D01*
X1Y611D02*
X8Y611D01*
X101Y611D02*
X117Y611D01*
X203Y611D02*
X219Y611D01*
X410Y611D02*
X422Y611D01*
X498Y611D02*
X510Y611D01*
X662Y611D02*
X669Y611D01*
X1Y610D02*
X8Y610D01*
X99Y610D02*
X117Y610D01*
X203Y610D02*
X221Y610D01*
X409Y610D02*
X421Y610D01*
X499Y610D02*
X510Y610D01*
X662Y610D02*
X669Y610D01*
X1Y609D02*
X8Y609D01*
X98Y609D02*
X115Y609D01*
X205Y609D02*
X222Y609D01*
X409Y609D02*
X420Y609D01*
X500Y609D02*
X511Y609D01*
X662Y609D02*
X669Y609D01*
X1Y608D02*
X8Y608D01*
X97Y608D02*
X114Y608D01*
X207Y608D02*
X223Y608D01*
X408Y608D02*
X419Y608D01*
X500Y608D02*
X512Y608D01*
X662Y608D02*
X669Y608D01*
X1Y607D02*
X8Y607D01*
X95Y607D02*
X112Y607D01*
X208Y607D02*
X225Y607D01*
X408Y607D02*
X419Y607D01*
X501Y607D02*
X512Y607D01*
X662Y607D02*
X669Y607D01*
X1Y606D02*
X8Y606D01*
X94Y606D02*
X110Y606D01*
X210Y606D02*
X226Y606D01*
X407Y606D02*
X418Y606D01*
X502Y606D02*
X513Y606D01*
X662Y606D02*
X669Y606D01*
X1Y605D02*
X8Y605D01*
X93Y605D02*
X109Y605D01*
X211Y605D02*
X227Y605D01*
X406Y605D02*
X417Y605D01*
X503Y605D02*
X513Y605D01*
X662Y605D02*
X669Y605D01*
X1Y604D02*
X8Y604D01*
X92Y604D02*
X107Y604D01*
X213Y604D02*
X228Y604D01*
X406Y604D02*
X416Y604D01*
X503Y604D02*
X514Y604D01*
X662Y604D02*
X669Y604D01*
X1Y603D02*
X8Y603D01*
X91Y603D02*
X106Y603D01*
X215Y603D02*
X229Y603D01*
X405Y603D02*
X416Y603D01*
X504Y603D02*
X514Y603D01*
X662Y603D02*
X669Y603D01*
X1Y602D02*
X8Y602D01*
X90Y602D02*
X104Y602D01*
X216Y602D02*
X231Y602D01*
X405Y602D02*
X415Y602D01*
X505Y602D02*
X515Y602D01*
X662Y602D02*
X669Y602D01*
X1Y601D02*
X8Y601D01*
X88Y601D02*
X103Y601D01*
X217Y601D02*
X232Y601D01*
X404Y601D02*
X415Y601D01*
X505Y601D02*
X515Y601D01*
X662Y601D02*
X669Y601D01*
X1Y600D02*
X8Y600D01*
X87Y600D02*
X102Y600D01*
X218Y600D02*
X233Y600D01*
X404Y600D02*
X414Y600D01*
X506Y600D02*
X516Y600D01*
X662Y600D02*
X669Y600D01*
X1Y599D02*
X8Y599D01*
X86Y599D02*
X100Y599D01*
X220Y599D02*
X234Y599D01*
X403Y599D02*
X413Y599D01*
X507Y599D02*
X516Y599D01*
X662Y599D02*
X669Y599D01*
X1Y598D02*
X8Y598D01*
X85Y598D02*
X99Y598D01*
X221Y598D02*
X235Y598D01*
X403Y598D02*
X413Y598D01*
X507Y598D02*
X517Y598D01*
X662Y598D02*
X669Y598D01*
X1Y597D02*
X8Y597D01*
X84Y597D02*
X98Y597D01*
X222Y597D02*
X236Y597D01*
X310Y597D02*
X334Y597D01*
X362Y597D02*
X387Y597D01*
X403Y597D02*
X412Y597D01*
X507Y597D02*
X517Y597D01*
X662Y597D02*
X669Y597D01*
X1Y596D02*
X8Y596D01*
X84Y596D02*
X97Y596D01*
X223Y596D02*
X237Y596D01*
X309Y596D02*
X337Y596D01*
X360Y596D02*
X390Y596D01*
X402Y596D02*
X412Y596D01*
X508Y596D02*
X518Y596D01*
X662Y596D02*
X669Y596D01*
X1Y595D02*
X8Y595D01*
X83Y595D02*
X96Y595D01*
X104Y595D02*
X106Y595D01*
X214Y595D02*
X216Y595D01*
X224Y595D02*
X237Y595D01*
X309Y595D02*
X339Y595D01*
X360Y595D02*
X391Y595D01*
X402Y595D02*
X411Y595D01*
X508Y595D02*
X518Y595D01*
X662Y595D02*
X669Y595D01*
X1Y594D02*
X8Y594D01*
X82Y594D02*
X95Y594D01*
X102Y594D02*
X108Y594D01*
X212Y594D02*
X218Y594D01*
X226Y594D02*
X238Y594D01*
X309Y594D02*
X340Y594D01*
X359Y594D02*
X392Y594D01*
X402Y594D02*
X411Y594D01*
X509Y594D02*
X518Y594D01*
X662Y594D02*
X669Y594D01*
X1Y593D02*
X8Y593D01*
X81Y593D02*
X94Y593D01*
X101Y593D02*
X109Y593D01*
X211Y593D02*
X219Y593D01*
X227Y593D02*
X239Y593D01*
X309Y593D02*
X341Y593D01*
X360Y593D02*
X392Y593D01*
X401Y593D02*
X411Y593D01*
X509Y593D02*
X519Y593D01*
X662Y593D02*
X669Y593D01*
X1Y592D02*
X8Y592D01*
X80Y592D02*
X92Y592D01*
X101Y592D02*
X110Y592D01*
X211Y592D02*
X220Y592D01*
X228Y592D02*
X240Y592D01*
X309Y592D02*
X341Y592D01*
X360Y592D02*
X393Y592D01*
X401Y592D02*
X410Y592D01*
X510Y592D02*
X519Y592D01*
X662Y592D02*
X669Y592D01*
X1Y591D02*
X8Y591D01*
X79Y591D02*
X92Y591D01*
X100Y591D02*
X110Y591D01*
X210Y591D02*
X220Y591D01*
X229Y591D02*
X241Y591D01*
X309Y591D02*
X342Y591D01*
X361Y591D02*
X393Y591D01*
X401Y591D02*
X410Y591D01*
X510Y591D02*
X519Y591D01*
X662Y591D02*
X669Y591D01*
X1Y590D02*
X8Y590D01*
X78Y590D02*
X91Y590D01*
X100Y590D02*
X110Y590D01*
X210Y590D02*
X220Y590D01*
X230Y590D02*
X242Y590D01*
X309Y590D02*
X316Y590D01*
X334Y590D02*
X342Y590D01*
X387Y590D02*
X393Y590D01*
X400Y590D02*
X410Y590D01*
X510Y590D02*
X519Y590D01*
X662Y590D02*
X669Y590D01*
X1Y589D02*
X8Y589D01*
X78Y589D02*
X90Y589D01*
X100Y589D02*
X110Y589D01*
X210Y589D02*
X220Y589D01*
X230Y589D02*
X242Y589D01*
X309Y589D02*
X315Y589D01*
X336Y589D02*
X343Y589D01*
X387Y589D02*
X393Y589D01*
X400Y589D02*
X409Y589D01*
X500Y589D02*
X519Y589D01*
X662Y589D02*
X669Y589D01*
X1Y588D02*
X8Y588D01*
X77Y588D02*
X89Y588D01*
X100Y588D02*
X110Y588D01*
X210Y588D02*
X220Y588D01*
X231Y588D02*
X243Y588D01*
X309Y588D02*
X315Y588D01*
X337Y588D02*
X343Y588D01*
X387Y588D02*
X393Y588D01*
X400Y588D02*
X409Y588D01*
X501Y588D02*
X519Y588D01*
X662Y588D02*
X669Y588D01*
X1Y587D02*
X8Y587D01*
X76Y587D02*
X88Y587D01*
X100Y587D02*
X110Y587D01*
X210Y587D02*
X220Y587D01*
X232Y587D02*
X244Y587D01*
X309Y587D02*
X315Y587D01*
X337Y587D02*
X343Y587D01*
X387Y587D02*
X393Y587D01*
X400Y587D02*
X409Y587D01*
X501Y587D02*
X519Y587D01*
X662Y587D02*
X669Y587D01*
X1Y586D02*
X8Y586D01*
X75Y586D02*
X87Y586D01*
X100Y586D02*
X110Y586D01*
X210Y586D02*
X220Y586D01*
X233Y586D02*
X245Y586D01*
X309Y586D02*
X315Y586D01*
X337Y586D02*
X343Y586D01*
X387Y586D02*
X393Y586D01*
X400Y586D02*
X409Y586D01*
X501Y586D02*
X519Y586D01*
X662Y586D02*
X669Y586D01*
X1Y585D02*
X8Y585D01*
X75Y585D02*
X86Y585D01*
X100Y585D02*
X110Y585D01*
X210Y585D02*
X220Y585D01*
X234Y585D02*
X245Y585D01*
X309Y585D02*
X315Y585D01*
X337Y585D02*
X343Y585D01*
X387Y585D02*
X393Y585D01*
X399Y585D02*
X408Y585D01*
X502Y585D02*
X518Y585D01*
X662Y585D02*
X669Y585D01*
X1Y584D02*
X8Y584D01*
X74Y584D02*
X85Y584D01*
X100Y584D02*
X110Y584D01*
X210Y584D02*
X220Y584D01*
X235Y584D02*
X246Y584D01*
X309Y584D02*
X315Y584D01*
X337Y584D02*
X343Y584D01*
X387Y584D02*
X393Y584D01*
X399Y584D02*
X408Y584D01*
X502Y584D02*
X518Y584D01*
X662Y584D02*
X669Y584D01*
X1Y583D02*
X8Y583D01*
X73Y583D02*
X85Y583D01*
X100Y583D02*
X110Y583D01*
X210Y583D02*
X220Y583D01*
X236Y583D02*
X247Y583D01*
X309Y583D02*
X315Y583D01*
X337Y583D02*
X343Y583D01*
X387Y583D02*
X393Y583D01*
X399Y583D02*
X408Y583D01*
X502Y583D02*
X518Y583D01*
X662Y583D02*
X669Y583D01*
X1Y582D02*
X8Y582D01*
X73Y582D02*
X84Y582D01*
X100Y582D02*
X110Y582D01*
X210Y582D02*
X220Y582D01*
X236Y582D02*
X247Y582D01*
X309Y582D02*
X315Y582D01*
X337Y582D02*
X343Y582D01*
X387Y582D02*
X393Y582D01*
X399Y582D02*
X408Y582D01*
X502Y582D02*
X518Y582D01*
X662Y582D02*
X669Y582D01*
X1Y581D02*
X8Y581D01*
X72Y581D02*
X83Y581D01*
X100Y581D02*
X110Y581D01*
X210Y581D02*
X220Y581D01*
X237Y581D02*
X248Y581D01*
X309Y581D02*
X315Y581D01*
X336Y581D02*
X343Y581D01*
X387Y581D02*
X393Y581D01*
X399Y581D02*
X408Y581D01*
X502Y581D02*
X517Y581D01*
X662Y581D02*
X669Y581D01*
X1Y580D02*
X8Y580D01*
X71Y580D02*
X82Y580D01*
X100Y580D02*
X110Y580D01*
X210Y580D02*
X220Y580D01*
X238Y580D02*
X249Y580D01*
X309Y580D02*
X315Y580D01*
X335Y580D02*
X343Y580D01*
X387Y580D02*
X393Y580D01*
X399Y580D02*
X408Y580D01*
X503Y580D02*
X517Y580D01*
X662Y580D02*
X669Y580D01*
X1Y579D02*
X8Y579D01*
X71Y579D02*
X82Y579D01*
X100Y579D02*
X110Y579D01*
X210Y579D02*
X220Y579D01*
X239Y579D02*
X249Y579D01*
X309Y579D02*
X342Y579D01*
X387Y579D02*
X393Y579D01*
X399Y579D02*
X408Y579D01*
X503Y579D02*
X517Y579D01*
X662Y579D02*
X669Y579D01*
X1Y578D02*
X8Y578D01*
X70Y578D02*
X81Y578D01*
X100Y578D02*
X110Y578D01*
X210Y578D02*
X220Y578D01*
X239Y578D02*
X250Y578D01*
X309Y578D02*
X342Y578D01*
X387Y578D02*
X393Y578D01*
X399Y578D02*
X408Y578D01*
X503Y578D02*
X517Y578D01*
X662Y578D02*
X669Y578D01*
X1Y577D02*
X8Y577D01*
X70Y577D02*
X80Y577D01*
X100Y577D02*
X110Y577D01*
X210Y577D02*
X220Y577D01*
X240Y577D02*
X250Y577D01*
X309Y577D02*
X341Y577D01*
X387Y577D02*
X393Y577D01*
X399Y577D02*
X408Y577D01*
X503Y577D02*
X517Y577D01*
X662Y577D02*
X669Y577D01*
X1Y576D02*
X8Y576D01*
X69Y576D02*
X80Y576D01*
X100Y576D02*
X110Y576D01*
X210Y576D02*
X220Y576D01*
X241Y576D02*
X251Y576D01*
X309Y576D02*
X340Y576D01*
X387Y576D02*
X393Y576D01*
X399Y576D02*
X408Y576D01*
X503Y576D02*
X517Y576D01*
X662Y576D02*
X669Y576D01*
X1Y575D02*
X8Y575D01*
X68Y575D02*
X79Y575D01*
X100Y575D02*
X110Y575D01*
X210Y575D02*
X220Y575D01*
X241Y575D02*
X252Y575D01*
X309Y575D02*
X339Y575D01*
X386Y575D02*
X393Y575D01*
X398Y575D02*
X407Y575D01*
X503Y575D02*
X517Y575D01*
X662Y575D02*
X669Y575D01*
X1Y574D02*
X8Y574D01*
X68Y574D02*
X78Y574D01*
X100Y574D02*
X110Y574D01*
X210Y574D02*
X220Y574D01*
X242Y574D02*
X252Y574D01*
X309Y574D02*
X338Y574D01*
X385Y574D02*
X392Y574D01*
X399Y574D02*
X407Y574D01*
X503Y574D02*
X517Y574D01*
X662Y574D02*
X669Y574D01*
X1Y573D02*
X8Y573D01*
X67Y573D02*
X78Y573D01*
X100Y573D02*
X110Y573D01*
X210Y573D02*
X220Y573D01*
X242Y573D02*
X253Y573D01*
X309Y573D02*
X336Y573D01*
X368Y573D02*
X392Y573D01*
X399Y573D02*
X408Y573D01*
X503Y573D02*
X517Y573D01*
X662Y573D02*
X669Y573D01*
X1Y572D02*
X8Y572D01*
X67Y572D02*
X77Y572D01*
X100Y572D02*
X110Y572D01*
X210Y572D02*
X220Y572D01*
X243Y572D02*
X253Y572D01*
X309Y572D02*
X316Y572D01*
X321Y572D02*
X329Y572D01*
X367Y572D02*
X392Y572D01*
X399Y572D02*
X408Y572D01*
X503Y572D02*
X517Y572D01*
X662Y572D02*
X669Y572D01*
X1Y571D02*
X8Y571D01*
X67Y571D02*
X77Y571D01*
X100Y571D02*
X110Y571D01*
X210Y571D02*
X220Y571D01*
X244Y571D02*
X254Y571D01*
X309Y571D02*
X315Y571D01*
X322Y571D02*
X329Y571D01*
X366Y571D02*
X391Y571D01*
X399Y571D02*
X408Y571D01*
X503Y571D02*
X517Y571D01*
X662Y571D02*
X669Y571D01*
X1Y570D02*
X8Y570D01*
X66Y570D02*
X76Y570D01*
X100Y570D02*
X110Y570D01*
X210Y570D02*
X220Y570D01*
X244Y570D02*
X254Y570D01*
X309Y570D02*
X315Y570D01*
X323Y570D02*
X330Y570D01*
X366Y570D02*
X390Y570D01*
X399Y570D02*
X408Y570D01*
X503Y570D02*
X517Y570D01*
X662Y570D02*
X669Y570D01*
X1Y569D02*
X8Y569D01*
X66Y569D02*
X75Y569D01*
X100Y569D02*
X110Y569D01*
X210Y569D02*
X220Y569D01*
X245Y569D02*
X255Y569D01*
X309Y569D02*
X315Y569D01*
X323Y569D02*
X330Y569D01*
X366Y569D02*
X391Y569D01*
X399Y569D02*
X408Y569D01*
X502Y569D02*
X517Y569D01*
X662Y569D02*
X669Y569D01*
X1Y568D02*
X8Y568D01*
X65Y568D02*
X75Y568D01*
X100Y568D02*
X110Y568D01*
X210Y568D02*
X220Y568D01*
X245Y568D02*
X255Y568D01*
X309Y568D02*
X315Y568D01*
X324Y568D02*
X331Y568D01*
X367Y568D02*
X392Y568D01*
X399Y568D02*
X408Y568D01*
X502Y568D02*
X518Y568D01*
X662Y568D02*
X669Y568D01*
X1Y567D02*
X8Y567D01*
X65Y567D02*
X74Y567D01*
X100Y567D02*
X110Y567D01*
X210Y567D02*
X220Y567D01*
X246Y567D02*
X256Y567D01*
X309Y567D02*
X315Y567D01*
X324Y567D02*
X332Y567D01*
X368Y567D02*
X392Y567D01*
X399Y567D02*
X408Y567D01*
X502Y567D02*
X518Y567D01*
X662Y567D02*
X669Y567D01*
X1Y566D02*
X8Y566D01*
X64Y566D02*
X74Y566D01*
X100Y566D02*
X110Y566D01*
X210Y566D02*
X220Y566D01*
X246Y566D02*
X256Y566D01*
X309Y566D02*
X315Y566D01*
X325Y566D02*
X332Y566D01*
X385Y566D02*
X392Y566D01*
X399Y566D02*
X408Y566D01*
X502Y566D02*
X518Y566D01*
X662Y566D02*
X669Y566D01*
X1Y565D02*
X8Y565D01*
X64Y565D02*
X73Y565D01*
X100Y565D02*
X110Y565D01*
X210Y565D02*
X220Y565D01*
X247Y565D02*
X256Y565D01*
X309Y565D02*
X315Y565D01*
X326Y565D02*
X333Y565D01*
X386Y565D02*
X393Y565D01*
X399Y565D02*
X408Y565D01*
X502Y565D02*
X518Y565D01*
X662Y565D02*
X669Y565D01*
X1Y564D02*
X8Y564D01*
X63Y564D02*
X73Y564D01*
X100Y564D02*
X110Y564D01*
X210Y564D02*
X220Y564D01*
X247Y564D02*
X257Y564D01*
X309Y564D02*
X315Y564D01*
X326Y564D02*
X333Y564D01*
X387Y564D02*
X393Y564D01*
X400Y564D02*
X409Y564D01*
X501Y564D02*
X518Y564D01*
X662Y564D02*
X669Y564D01*
X1Y563D02*
X8Y563D01*
X63Y563D02*
X73Y563D01*
X100Y563D02*
X110Y563D01*
X210Y563D02*
X220Y563D01*
X248Y563D02*
X257Y563D01*
X309Y563D02*
X315Y563D01*
X327Y563D02*
X334Y563D01*
X387Y563D02*
X393Y563D01*
X400Y563D02*
X409Y563D01*
X501Y563D02*
X519Y563D01*
X662Y563D02*
X669Y563D01*
X1Y562D02*
X8Y562D01*
X62Y562D02*
X72Y562D01*
X100Y562D02*
X110Y562D01*
X210Y562D02*
X220Y562D01*
X248Y562D02*
X258Y562D01*
X309Y562D02*
X315Y562D01*
X327Y562D02*
X334Y562D01*
X387Y562D02*
X393Y562D01*
X400Y562D02*
X409Y562D01*
X501Y562D02*
X519Y562D01*
X662Y562D02*
X669Y562D01*
X1Y561D02*
X8Y561D01*
X62Y561D02*
X72Y561D01*
X100Y561D02*
X110Y561D01*
X210Y561D02*
X220Y561D01*
X248Y561D02*
X258Y561D01*
X309Y561D02*
X315Y561D01*
X328Y561D02*
X335Y561D01*
X387Y561D02*
X393Y561D01*
X400Y561D02*
X409Y561D01*
X501Y561D02*
X519Y561D01*
X662Y561D02*
X669Y561D01*
X1Y560D02*
X8Y560D01*
X62Y560D02*
X71Y560D01*
X100Y560D02*
X110Y560D01*
X210Y560D02*
X220Y560D01*
X249Y560D02*
X258Y560D01*
X309Y560D02*
X315Y560D01*
X328Y560D02*
X336Y560D01*
X387Y560D02*
X393Y560D01*
X400Y560D02*
X410Y560D01*
X500Y560D02*
X520Y560D01*
X662Y560D02*
X669Y560D01*
X1Y559D02*
X8Y559D01*
X61Y559D02*
X71Y559D01*
X100Y559D02*
X110Y559D01*
X210Y559D02*
X220Y559D01*
X249Y559D02*
X259Y559D01*
X309Y559D02*
X315Y559D01*
X329Y559D02*
X336Y559D01*
X387Y559D02*
X393Y559D01*
X401Y559D02*
X410Y559D01*
X510Y559D02*
X519Y559D01*
X662Y559D02*
X669Y559D01*
X1Y558D02*
X8Y558D01*
X61Y558D02*
X71Y558D01*
X100Y558D02*
X110Y558D01*
X210Y558D02*
X220Y558D01*
X250Y558D02*
X259Y558D01*
X309Y558D02*
X315Y558D01*
X330Y558D02*
X337Y558D01*
X387Y558D02*
X393Y558D01*
X401Y558D02*
X410Y558D01*
X510Y558D02*
X519Y558D01*
X662Y558D02*
X669Y558D01*
X1Y557D02*
X8Y557D01*
X61Y557D02*
X70Y557D01*
X101Y557D02*
X109Y557D01*
X211Y557D02*
X219Y557D01*
X250Y557D02*
X259Y557D01*
X309Y557D02*
X315Y557D01*
X330Y557D02*
X337Y557D01*
X387Y557D02*
X393Y557D01*
X401Y557D02*
X411Y557D01*
X509Y557D02*
X519Y557D01*
X662Y557D02*
X669Y557D01*
X1Y556D02*
X8Y556D01*
X60Y556D02*
X70Y556D01*
X102Y556D02*
X108Y556D01*
X212Y556D02*
X218Y556D01*
X250Y556D02*
X260Y556D01*
X309Y556D02*
X315Y556D01*
X331Y556D02*
X338Y556D01*
X387Y556D02*
X393Y556D01*
X401Y556D02*
X411Y556D01*
X509Y556D02*
X518Y556D01*
X662Y556D02*
X669Y556D01*
X1Y555D02*
X8Y555D01*
X60Y555D02*
X69Y555D01*
X103Y555D02*
X107Y555D01*
X213Y555D02*
X217Y555D01*
X251Y555D02*
X260Y555D01*
X309Y555D02*
X315Y555D01*
X331Y555D02*
X339Y555D01*
X387Y555D02*
X393Y555D01*
X402Y555D02*
X411Y555D01*
X509Y555D02*
X518Y555D01*
X662Y555D02*
X669Y555D01*
X1Y554D02*
X8Y554D01*
X60Y554D02*
X69Y554D01*
X251Y554D02*
X260Y554D01*
X309Y554D02*
X315Y554D01*
X332Y554D02*
X339Y554D01*
X387Y554D02*
X393Y554D01*
X402Y554D02*
X412Y554D01*
X508Y554D02*
X518Y554D01*
X662Y554D02*
X669Y554D01*
X1Y553D02*
X8Y553D01*
X60Y553D02*
X69Y553D01*
X251Y553D02*
X261Y553D01*
X309Y553D02*
X315Y553D01*
X333Y553D02*
X340Y553D01*
X387Y553D02*
X393Y553D01*
X403Y553D02*
X412Y553D01*
X508Y553D02*
X517Y553D01*
X662Y553D02*
X669Y553D01*
X1Y552D02*
X8Y552D01*
X59Y552D02*
X68Y552D01*
X252Y552D02*
X261Y552D01*
X309Y552D02*
X315Y552D01*
X333Y552D02*
X340Y552D01*
X387Y552D02*
X393Y552D01*
X403Y552D02*
X413Y552D01*
X507Y552D02*
X517Y552D01*
X662Y552D02*
X669Y552D01*
X1Y551D02*
X8Y551D01*
X59Y551D02*
X68Y551D01*
X252Y551D02*
X261Y551D01*
X309Y551D02*
X315Y551D01*
X334Y551D02*
X341Y551D01*
X387Y551D02*
X393Y551D01*
X403Y551D02*
X413Y551D01*
X507Y551D02*
X517Y551D01*
X662Y551D02*
X669Y551D01*
X1Y550D02*
X8Y550D01*
X59Y550D02*
X68Y550D01*
X252Y550D02*
X261Y550D01*
X309Y550D02*
X315Y550D01*
X334Y550D02*
X341Y550D01*
X386Y550D02*
X393Y550D01*
X404Y550D02*
X414Y550D01*
X506Y550D02*
X516Y550D01*
X662Y550D02*
X669Y550D01*
X1Y549D02*
X8Y549D01*
X58Y549D02*
X68Y549D01*
X252Y549D02*
X262Y549D01*
X309Y549D02*
X315Y549D01*
X335Y549D02*
X342Y549D01*
X361Y549D02*
X393Y549D01*
X404Y549D02*
X414Y549D01*
X506Y549D02*
X516Y549D01*
X662Y549D02*
X669Y549D01*
X1Y548D02*
X8Y548D01*
X58Y548D02*
X67Y548D01*
X253Y548D02*
X262Y548D01*
X309Y548D02*
X315Y548D01*
X335Y548D02*
X343Y548D01*
X360Y548D02*
X393Y548D01*
X405Y548D02*
X415Y548D01*
X505Y548D02*
X515Y548D01*
X662Y548D02*
X669Y548D01*
X1Y547D02*
X8Y547D01*
X58Y547D02*
X67Y547D01*
X253Y547D02*
X262Y547D01*
X309Y547D02*
X315Y547D01*
X336Y547D02*
X343Y547D01*
X359Y547D02*
X392Y547D01*
X405Y547D02*
X416Y547D01*
X504Y547D02*
X515Y547D01*
X662Y547D02*
X669Y547D01*
X1Y546D02*
X8Y546D01*
X58Y546D02*
X67Y546D01*
X253Y546D02*
X262Y546D01*
X310Y546D02*
X315Y546D01*
X337Y546D02*
X343Y546D01*
X359Y546D02*
X392Y546D01*
X406Y546D02*
X416Y546D01*
X504Y546D02*
X514Y546D01*
X662Y546D02*
X669Y546D01*
X1Y545D02*
X8Y545D01*
X58Y545D02*
X67Y545D01*
X253Y545D02*
X263Y545D01*
X310Y545D02*
X315Y545D01*
X337Y545D02*
X343Y545D01*
X360Y545D02*
X391Y545D01*
X406Y545D02*
X417Y545D01*
X503Y545D02*
X514Y545D01*
X662Y545D02*
X669Y545D01*
X1Y544D02*
X8Y544D01*
X57Y544D02*
X66Y544D01*
X254Y544D02*
X263Y544D01*
X311Y544D02*
X314Y544D01*
X338Y544D02*
X342Y544D01*
X361Y544D02*
X389Y544D01*
X407Y544D02*
X418Y544D01*
X502Y544D02*
X513Y544D01*
X662Y544D02*
X669Y544D01*
X1Y543D02*
X8Y543D01*
X57Y543D02*
X66Y543D01*
X254Y543D02*
X263Y543D01*
X363Y543D02*
X386Y543D01*
X407Y543D02*
X418Y543D01*
X501Y543D02*
X512Y543D01*
X662Y543D02*
X669Y543D01*
X1Y542D02*
X8Y542D01*
X57Y542D02*
X66Y542D01*
X254Y542D02*
X263Y542D01*
X408Y542D02*
X419Y542D01*
X501Y542D02*
X512Y542D01*
X662Y542D02*
X669Y542D01*
X1Y541D02*
X8Y541D01*
X57Y541D02*
X66Y541D01*
X254Y541D02*
X263Y541D01*
X409Y541D02*
X420Y541D01*
X500Y541D02*
X511Y541D01*
X662Y541D02*
X669Y541D01*
X1Y540D02*
X8Y540D01*
X57Y540D02*
X66Y540D01*
X254Y540D02*
X263Y540D01*
X409Y540D02*
X421Y540D01*
X499Y540D02*
X511Y540D01*
X662Y540D02*
X669Y540D01*
X1Y539D02*
X8Y539D01*
X57Y539D02*
X66Y539D01*
X255Y539D02*
X264Y539D01*
X410Y539D02*
X422Y539D01*
X498Y539D02*
X510Y539D01*
X662Y539D02*
X669Y539D01*
X1Y538D02*
X8Y538D01*
X56Y538D02*
X66Y538D01*
X255Y538D02*
X264Y538D01*
X411Y538D02*
X423Y538D01*
X497Y538D02*
X509Y538D01*
X662Y538D02*
X669Y538D01*
X1Y537D02*
X8Y537D01*
X56Y537D02*
X65Y537D01*
X255Y537D02*
X264Y537D01*
X411Y537D02*
X424Y537D01*
X496Y537D02*
X508Y537D01*
X662Y537D02*
X669Y537D01*
X1Y536D02*
X8Y536D01*
X56Y536D02*
X65Y536D01*
X255Y536D02*
X264Y536D01*
X412Y536D02*
X425Y536D01*
X495Y536D02*
X508Y536D01*
X662Y536D02*
X669Y536D01*
X1Y535D02*
X8Y535D01*
X56Y535D02*
X65Y535D01*
X255Y535D02*
X264Y535D01*
X413Y535D02*
X426Y535D01*
X494Y535D02*
X507Y535D01*
X662Y535D02*
X669Y535D01*
X1Y534D02*
X8Y534D01*
X56Y534D02*
X65Y534D01*
X255Y534D02*
X264Y534D01*
X414Y534D02*
X427Y534D01*
X493Y534D02*
X506Y534D01*
X542Y534D02*
X548Y534D01*
X572Y534D02*
X578Y534D01*
X662Y534D02*
X669Y534D01*
X1Y533D02*
X8Y533D01*
X56Y533D02*
X65Y533D01*
X255Y533D02*
X264Y533D01*
X415Y533D02*
X429Y533D01*
X491Y533D02*
X505Y533D01*
X539Y533D02*
X553Y533D01*
X567Y533D02*
X581Y533D01*
X662Y533D02*
X669Y533D01*
X1Y532D02*
X8Y532D01*
X56Y532D02*
X65Y532D01*
X255Y532D02*
X264Y532D01*
X416Y532D02*
X430Y532D01*
X490Y532D02*
X504Y532D01*
X537Y532D02*
X583Y532D01*
X662Y532D02*
X669Y532D01*
X1Y531D02*
X8Y531D01*
X56Y531D02*
X65Y531D01*
X255Y531D02*
X264Y531D01*
X417Y531D02*
X431Y531D01*
X488Y531D02*
X503Y531D01*
X534Y531D02*
X585Y531D01*
X662Y531D02*
X669Y531D01*
X1Y530D02*
X8Y530D01*
X56Y530D02*
X65Y530D01*
X255Y530D02*
X264Y530D01*
X418Y530D02*
X433Y530D01*
X487Y530D02*
X502Y530D01*
X532Y530D02*
X587Y530D01*
X662Y530D02*
X669Y530D01*
X1Y529D02*
X8Y529D01*
X56Y529D02*
X65Y529D01*
X255Y529D02*
X264Y529D01*
X419Y529D02*
X435Y529D01*
X485Y529D02*
X501Y529D01*
X530Y529D02*
X589Y529D01*
X662Y529D02*
X669Y529D01*
X1Y528D02*
X8Y528D01*
X56Y528D02*
X65Y528D01*
X255Y528D02*
X264Y528D01*
X420Y528D02*
X437Y528D01*
X483Y528D02*
X500Y528D01*
X529Y528D02*
X591Y528D01*
X662Y528D02*
X669Y528D01*
X1Y527D02*
X8Y527D01*
X56Y527D02*
X65Y527D01*
X255Y527D02*
X264Y527D01*
X421Y527D02*
X439Y527D01*
X481Y527D02*
X499Y527D01*
X527Y527D02*
X593Y527D01*
X662Y527D02*
X669Y527D01*
X1Y526D02*
X8Y526D01*
X56Y526D02*
X65Y526D01*
X255Y526D02*
X264Y526D01*
X422Y526D02*
X442Y526D01*
X478Y526D02*
X497Y526D01*
X525Y526D02*
X550Y526D01*
X570Y526D02*
X594Y526D01*
X662Y526D02*
X669Y526D01*
X1Y525D02*
X8Y525D01*
X56Y525D02*
X65Y525D01*
X256Y525D02*
X265Y525D01*
X424Y525D02*
X445Y525D01*
X475Y525D02*
X496Y525D01*
X524Y525D02*
X545Y525D01*
X574Y525D02*
X596Y525D01*
X662Y525D02*
X669Y525D01*
X1Y524D02*
X8Y524D01*
X56Y524D02*
X65Y524D01*
X256Y524D02*
X264Y524D01*
X425Y524D02*
X449Y524D01*
X471Y524D02*
X495Y524D01*
X523Y524D02*
X542Y524D01*
X578Y524D02*
X597Y524D01*
X662Y524D02*
X669Y524D01*
X1Y523D02*
X8Y523D01*
X56Y523D02*
X65Y523D01*
X255Y523D02*
X264Y523D01*
X427Y523D02*
X457Y523D01*
X463Y523D02*
X493Y523D01*
X521Y523D02*
X539Y523D01*
X580Y523D02*
X598Y523D01*
X662Y523D02*
X669Y523D01*
X1Y522D02*
X8Y522D01*
X56Y522D02*
X65Y522D01*
X255Y522D02*
X264Y522D01*
X428Y522D02*
X492Y522D01*
X520Y522D02*
X537Y522D01*
X582Y522D02*
X600Y522D01*
X662Y522D02*
X669Y522D01*
X1Y521D02*
X8Y521D01*
X56Y521D02*
X65Y521D01*
X255Y521D02*
X264Y521D01*
X430Y521D02*
X490Y521D01*
X519Y521D02*
X535Y521D01*
X585Y521D02*
X601Y521D01*
X662Y521D02*
X669Y521D01*
X1Y520D02*
X8Y520D01*
X56Y520D02*
X65Y520D01*
X255Y520D02*
X264Y520D01*
X432Y520D02*
X488Y520D01*
X518Y520D02*
X533Y520D01*
X586Y520D02*
X602Y520D01*
X662Y520D02*
X669Y520D01*
X1Y519D02*
X8Y519D01*
X56Y519D02*
X65Y519D01*
X255Y519D02*
X264Y519D01*
X434Y519D02*
X486Y519D01*
X517Y519D02*
X532Y519D01*
X588Y519D02*
X603Y519D01*
X662Y519D02*
X669Y519D01*
X1Y518D02*
X8Y518D01*
X56Y518D02*
X65Y518D01*
X255Y518D02*
X264Y518D01*
X436Y518D02*
X484Y518D01*
X516Y518D02*
X530Y518D01*
X590Y518D02*
X604Y518D01*
X662Y518D02*
X669Y518D01*
X1Y517D02*
X8Y517D01*
X56Y517D02*
X65Y517D01*
X255Y517D02*
X264Y517D01*
X439Y517D02*
X454Y517D01*
X466Y517D02*
X481Y517D01*
X515Y517D02*
X529Y517D01*
X591Y517D02*
X605Y517D01*
X662Y517D02*
X669Y517D01*
X1Y516D02*
X8Y516D01*
X56Y516D02*
X65Y516D01*
X255Y516D02*
X264Y516D01*
X441Y516D02*
X449Y516D01*
X471Y516D02*
X479Y516D01*
X514Y516D02*
X528Y516D01*
X592Y516D02*
X606Y516D01*
X662Y516D02*
X669Y516D01*
X1Y515D02*
X8Y515D01*
X56Y515D02*
X65Y515D01*
X255Y515D02*
X264Y515D01*
X445Y515D02*
X446Y515D01*
X474Y515D02*
X475Y515D01*
X513Y515D02*
X526Y515D01*
X593Y515D02*
X607Y515D01*
X662Y515D02*
X669Y515D01*
X1Y514D02*
X8Y514D01*
X56Y514D02*
X65Y514D01*
X255Y514D02*
X264Y514D01*
X512Y514D02*
X525Y514D01*
X595Y514D02*
X607Y514D01*
X662Y514D02*
X669Y514D01*
X1Y513D02*
X8Y513D01*
X56Y513D02*
X65Y513D01*
X255Y513D02*
X264Y513D01*
X512Y513D02*
X524Y513D01*
X596Y513D02*
X608Y513D01*
X662Y513D02*
X669Y513D01*
X1Y512D02*
X8Y512D01*
X56Y512D02*
X65Y512D01*
X255Y512D02*
X264Y512D01*
X511Y512D02*
X523Y512D01*
X597Y512D02*
X609Y512D01*
X662Y512D02*
X669Y512D01*
X1Y511D02*
X8Y511D01*
X57Y511D02*
X66Y511D01*
X255Y511D02*
X264Y511D01*
X510Y511D02*
X522Y511D01*
X598Y511D02*
X610Y511D01*
X662Y511D02*
X669Y511D01*
X1Y510D02*
X8Y510D01*
X57Y510D02*
X66Y510D01*
X254Y510D02*
X263Y510D01*
X509Y510D02*
X521Y510D01*
X599Y510D02*
X610Y510D01*
X662Y510D02*
X669Y510D01*
X1Y509D02*
X8Y509D01*
X57Y509D02*
X66Y509D01*
X254Y509D02*
X263Y509D01*
X509Y509D02*
X520Y509D01*
X600Y509D02*
X611Y509D01*
X662Y509D02*
X669Y509D01*
X1Y508D02*
X8Y508D01*
X57Y508D02*
X66Y508D01*
X254Y508D02*
X263Y508D01*
X508Y508D02*
X519Y508D01*
X600Y508D02*
X612Y508D01*
X662Y508D02*
X669Y508D01*
X1Y507D02*
X8Y507D01*
X57Y507D02*
X66Y507D01*
X254Y507D02*
X263Y507D01*
X508Y507D02*
X519Y507D01*
X601Y507D02*
X612Y507D01*
X662Y507D02*
X669Y507D01*
X1Y506D02*
X8Y506D01*
X57Y506D02*
X66Y506D01*
X254Y506D02*
X263Y506D01*
X507Y506D02*
X518Y506D01*
X602Y506D02*
X613Y506D01*
X662Y506D02*
X669Y506D01*
X1Y505D02*
X8Y505D01*
X58Y505D02*
X67Y505D01*
X253Y505D02*
X263Y505D01*
X506Y505D02*
X517Y505D01*
X603Y505D02*
X613Y505D01*
X662Y505D02*
X669Y505D01*
X1Y504D02*
X8Y504D01*
X58Y504D02*
X67Y504D01*
X253Y504D02*
X262Y504D01*
X506Y504D02*
X516Y504D01*
X604Y504D02*
X614Y504D01*
X662Y504D02*
X669Y504D01*
X1Y503D02*
X8Y503D01*
X58Y503D02*
X67Y503D01*
X253Y503D02*
X262Y503D01*
X505Y503D02*
X516Y503D01*
X604Y503D02*
X614Y503D01*
X662Y503D02*
X669Y503D01*
X1Y502D02*
X8Y502D01*
X58Y502D02*
X67Y502D01*
X253Y502D02*
X262Y502D01*
X505Y502D02*
X515Y502D01*
X605Y502D02*
X615Y502D01*
X662Y502D02*
X669Y502D01*
X1Y501D02*
X8Y501D01*
X58Y501D02*
X68Y501D01*
X253Y501D02*
X262Y501D01*
X336Y501D02*
X359Y501D01*
X390Y501D02*
X390Y501D01*
X504Y501D02*
X514Y501D01*
X605Y501D02*
X615Y501D01*
X662Y501D02*
X669Y501D01*
X1Y500D02*
X8Y500D01*
X59Y500D02*
X68Y500D01*
X252Y500D02*
X261Y500D01*
X335Y500D02*
X363Y500D01*
X388Y500D02*
X392Y500D01*
X504Y500D02*
X514Y500D01*
X606Y500D02*
X616Y500D01*
X662Y500D02*
X669Y500D01*
X1Y499D02*
X8Y499D01*
X59Y499D02*
X68Y499D01*
X252Y499D02*
X261Y499D01*
X335Y499D02*
X365Y499D01*
X387Y499D02*
X393Y499D01*
X503Y499D02*
X513Y499D01*
X607Y499D02*
X616Y499D01*
X662Y499D02*
X669Y499D01*
X1Y498D02*
X8Y498D01*
X59Y498D02*
X68Y498D01*
X252Y498D02*
X261Y498D01*
X335Y498D02*
X366Y498D01*
X387Y498D02*
X393Y498D01*
X503Y498D02*
X513Y498D01*
X607Y498D02*
X617Y498D01*
X662Y498D02*
X669Y498D01*
X1Y497D02*
X8Y497D01*
X59Y497D02*
X69Y497D01*
X251Y497D02*
X261Y497D01*
X335Y497D02*
X367Y497D01*
X387Y497D02*
X393Y497D01*
X503Y497D02*
X512Y497D01*
X607Y497D02*
X617Y497D01*
X662Y497D02*
X669Y497D01*
X1Y496D02*
X8Y496D01*
X60Y496D02*
X69Y496D01*
X251Y496D02*
X260Y496D01*
X335Y496D02*
X367Y496D01*
X387Y496D02*
X393Y496D01*
X502Y496D02*
X512Y496D01*
X608Y496D02*
X618Y496D01*
X662Y496D02*
X669Y496D01*
X1Y495D02*
X8Y495D01*
X60Y495D02*
X69Y495D01*
X251Y495D02*
X260Y495D01*
X335Y495D02*
X368Y495D01*
X387Y495D02*
X393Y495D01*
X410Y495D02*
X411Y495D01*
X502Y495D02*
X511Y495D01*
X608Y495D02*
X618Y495D01*
X662Y495D02*
X669Y495D01*
X1Y494D02*
X8Y494D01*
X60Y494D02*
X70Y494D01*
X250Y494D02*
X260Y494D01*
X335Y494D02*
X342Y494D01*
X360Y494D02*
X368Y494D01*
X387Y494D02*
X393Y494D01*
X409Y494D02*
X413Y494D01*
X502Y494D02*
X511Y494D01*
X609Y494D02*
X618Y494D01*
X662Y494D02*
X669Y494D01*
X1Y493D02*
X8Y493D01*
X61Y493D02*
X70Y493D01*
X250Y493D02*
X259Y493D01*
X335Y493D02*
X341Y493D01*
X362Y493D02*
X369Y493D01*
X387Y493D02*
X393Y493D01*
X408Y493D02*
X414Y493D01*
X501Y493D02*
X511Y493D01*
X609Y493D02*
X619Y493D01*
X662Y493D02*
X669Y493D01*
X1Y492D02*
X8Y492D01*
X61Y492D02*
X70Y492D01*
X250Y492D02*
X259Y492D01*
X335Y492D02*
X341Y492D01*
X363Y492D02*
X369Y492D01*
X387Y492D02*
X393Y492D01*
X408Y492D02*
X414Y492D01*
X501Y492D02*
X510Y492D01*
X610Y492D02*
X619Y492D01*
X662Y492D02*
X669Y492D01*
X1Y491D02*
X8Y491D01*
X61Y491D02*
X71Y491D01*
X249Y491D02*
X259Y491D01*
X335Y491D02*
X341Y491D01*
X363Y491D02*
X369Y491D01*
X387Y491D02*
X393Y491D01*
X408Y491D02*
X414Y491D01*
X501Y491D02*
X510Y491D01*
X610Y491D02*
X619Y491D01*
X662Y491D02*
X669Y491D01*
X1Y490D02*
X8Y490D01*
X62Y490D02*
X71Y490D01*
X249Y490D02*
X258Y490D01*
X335Y490D02*
X341Y490D01*
X363Y490D02*
X369Y490D01*
X387Y490D02*
X393Y490D01*
X408Y490D02*
X414Y490D01*
X500Y490D02*
X510Y490D01*
X610Y490D02*
X619Y490D01*
X662Y490D02*
X669Y490D01*
X1Y489D02*
X8Y489D01*
X62Y489D02*
X72Y489D01*
X249Y489D02*
X258Y489D01*
X335Y489D02*
X341Y489D01*
X363Y489D02*
X369Y489D01*
X387Y489D02*
X393Y489D01*
X408Y489D02*
X414Y489D01*
X500Y489D02*
X519Y489D01*
X610Y489D02*
X620Y489D01*
X662Y489D02*
X669Y489D01*
X1Y488D02*
X8Y488D01*
X62Y488D02*
X72Y488D01*
X248Y488D02*
X258Y488D01*
X335Y488D02*
X341Y488D01*
X363Y488D02*
X369Y488D01*
X387Y488D02*
X393Y488D01*
X408Y488D02*
X414Y488D01*
X501Y488D02*
X519Y488D01*
X611Y488D02*
X620Y488D01*
X662Y488D02*
X669Y488D01*
X1Y487D02*
X8Y487D01*
X63Y487D02*
X72Y487D01*
X248Y487D02*
X257Y487D01*
X335Y487D02*
X341Y487D01*
X363Y487D02*
X369Y487D01*
X387Y487D02*
X393Y487D01*
X408Y487D02*
X414Y487D01*
X501Y487D02*
X519Y487D01*
X611Y487D02*
X620Y487D01*
X662Y487D02*
X669Y487D01*
X1Y486D02*
X8Y486D01*
X63Y486D02*
X73Y486D01*
X247Y486D02*
X257Y486D01*
X335Y486D02*
X341Y486D01*
X363Y486D02*
X369Y486D01*
X387Y486D02*
X393Y486D01*
X408Y486D02*
X414Y486D01*
X501Y486D02*
X518Y486D01*
X611Y486D02*
X620Y486D01*
X662Y486D02*
X669Y486D01*
X1Y485D02*
X8Y485D01*
X64Y485D02*
X73Y485D01*
X247Y485D02*
X257Y485D01*
X335Y485D02*
X341Y485D01*
X362Y485D02*
X369Y485D01*
X387Y485D02*
X393Y485D01*
X408Y485D02*
X414Y485D01*
X502Y485D02*
X518Y485D01*
X611Y485D02*
X620Y485D01*
X662Y485D02*
X669Y485D01*
X1Y484D02*
X8Y484D01*
X64Y484D02*
X74Y484D01*
X246Y484D02*
X256Y484D01*
X335Y484D02*
X341Y484D01*
X361Y484D02*
X369Y484D01*
X387Y484D02*
X393Y484D01*
X408Y484D02*
X414Y484D01*
X502Y484D02*
X518Y484D01*
X612Y484D02*
X621Y484D01*
X662Y484D02*
X669Y484D01*
X1Y483D02*
X8Y483D01*
X64Y483D02*
X74Y483D01*
X246Y483D02*
X256Y483D01*
X335Y483D02*
X368Y483D01*
X387Y483D02*
X393Y483D01*
X408Y483D02*
X414Y483D01*
X502Y483D02*
X518Y483D01*
X612Y483D02*
X621Y483D01*
X662Y483D02*
X669Y483D01*
X1Y482D02*
X8Y482D01*
X65Y482D02*
X75Y482D01*
X245Y482D02*
X255Y482D01*
X335Y482D02*
X368Y482D01*
X387Y482D02*
X393Y482D01*
X408Y482D02*
X414Y482D01*
X502Y482D02*
X518Y482D01*
X612Y482D02*
X621Y482D01*
X662Y482D02*
X669Y482D01*
X1Y481D02*
X8Y481D01*
X65Y481D02*
X75Y481D01*
X245Y481D02*
X255Y481D01*
X335Y481D02*
X367Y481D01*
X387Y481D02*
X393Y481D01*
X408Y481D02*
X414Y481D01*
X502Y481D02*
X517Y481D01*
X612Y481D02*
X621Y481D01*
X662Y481D02*
X669Y481D01*
X1Y480D02*
X8Y480D01*
X66Y480D02*
X76Y480D01*
X244Y480D02*
X254Y480D01*
X335Y480D02*
X366Y480D01*
X387Y480D02*
X393Y480D01*
X408Y480D02*
X414Y480D01*
X503Y480D02*
X517Y480D01*
X612Y480D02*
X621Y480D01*
X662Y480D02*
X669Y480D01*
X1Y479D02*
X8Y479D01*
X66Y479D02*
X76Y479D01*
X244Y479D02*
X254Y479D01*
X335Y479D02*
X365Y479D01*
X387Y479D02*
X393Y479D01*
X408Y479D02*
X414Y479D01*
X503Y479D02*
X517Y479D01*
X612Y479D02*
X621Y479D01*
X662Y479D02*
X669Y479D01*
X1Y478D02*
X8Y478D01*
X67Y478D02*
X77Y478D01*
X243Y478D02*
X253Y478D01*
X335Y478D02*
X364Y478D01*
X387Y478D02*
X393Y478D01*
X408Y478D02*
X414Y478D01*
X503Y478D02*
X517Y478D01*
X612Y478D02*
X621Y478D01*
X662Y478D02*
X669Y478D01*
X1Y477D02*
X8Y477D01*
X67Y477D02*
X78Y477D01*
X243Y477D02*
X253Y477D01*
X335Y477D02*
X362Y477D01*
X387Y477D02*
X393Y477D01*
X408Y477D02*
X414Y477D01*
X503Y477D02*
X517Y477D01*
X612Y477D02*
X621Y477D01*
X662Y477D02*
X669Y477D01*
X1Y476D02*
X8Y476D01*
X68Y476D02*
X78Y476D01*
X242Y476D02*
X252Y476D01*
X335Y476D02*
X342Y476D01*
X347Y476D02*
X355Y476D01*
X387Y476D02*
X393Y476D01*
X408Y476D02*
X414Y476D01*
X503Y476D02*
X517Y476D01*
X612Y476D02*
X621Y476D01*
X662Y476D02*
X669Y476D01*
X1Y475D02*
X8Y475D01*
X68Y475D02*
X79Y475D01*
X241Y475D02*
X252Y475D01*
X335Y475D02*
X341Y475D01*
X348Y475D02*
X355Y475D01*
X387Y475D02*
X393Y475D01*
X408Y475D02*
X414Y475D01*
X503Y475D02*
X517Y475D01*
X612Y475D02*
X621Y475D01*
X662Y475D02*
X669Y475D01*
X1Y474D02*
X8Y474D01*
X69Y474D02*
X79Y474D01*
X241Y474D02*
X251Y474D01*
X335Y474D02*
X341Y474D01*
X349Y474D02*
X356Y474D01*
X387Y474D02*
X393Y474D01*
X408Y474D02*
X414Y474D01*
X503Y474D02*
X517Y474D01*
X612Y474D02*
X621Y474D01*
X662Y474D02*
X669Y474D01*
X1Y473D02*
X8Y473D01*
X70Y473D02*
X80Y473D01*
X240Y473D02*
X251Y473D01*
X335Y473D02*
X341Y473D01*
X349Y473D02*
X356Y473D01*
X387Y473D02*
X393Y473D01*
X408Y473D02*
X414Y473D01*
X503Y473D02*
X517Y473D01*
X612Y473D02*
X621Y473D01*
X662Y473D02*
X669Y473D01*
X1Y472D02*
X8Y472D01*
X70Y472D02*
X81Y472D01*
X239Y472D02*
X250Y472D01*
X335Y472D02*
X341Y472D01*
X350Y472D02*
X357Y472D01*
X387Y472D02*
X393Y472D01*
X408Y472D02*
X414Y472D01*
X503Y472D02*
X517Y472D01*
X612Y472D02*
X621Y472D01*
X662Y472D02*
X669Y472D01*
X1Y471D02*
X8Y471D01*
X71Y471D02*
X81Y471D01*
X239Y471D02*
X249Y471D01*
X335Y471D02*
X341Y471D01*
X350Y471D02*
X358Y471D01*
X387Y471D02*
X416Y471D01*
X503Y471D02*
X517Y471D01*
X612Y471D02*
X621Y471D01*
X662Y471D02*
X669Y471D01*
X1Y470D02*
X8Y470D01*
X71Y470D02*
X82Y470D01*
X238Y470D02*
X249Y470D01*
X335Y470D02*
X341Y470D01*
X351Y470D02*
X358Y470D01*
X387Y470D02*
X417Y470D01*
X503Y470D02*
X517Y470D01*
X612Y470D02*
X621Y470D01*
X662Y470D02*
X669Y470D01*
X1Y469D02*
X8Y469D01*
X72Y469D02*
X83Y469D01*
X237Y469D02*
X248Y469D01*
X335Y469D02*
X341Y469D01*
X352Y469D02*
X359Y469D01*
X387Y469D02*
X417Y469D01*
X502Y469D02*
X517Y469D01*
X612Y469D02*
X621Y469D01*
X662Y469D02*
X669Y469D01*
X1Y468D02*
X8Y468D01*
X73Y468D02*
X84Y468D01*
X236Y468D02*
X248Y468D01*
X335Y468D02*
X341Y468D01*
X352Y468D02*
X359Y468D01*
X387Y468D02*
X417Y468D01*
X502Y468D02*
X518Y468D01*
X612Y468D02*
X621Y468D01*
X662Y468D02*
X669Y468D01*
X1Y467D02*
X8Y467D01*
X73Y467D02*
X84Y467D01*
X236Y467D02*
X247Y467D01*
X335Y467D02*
X341Y467D01*
X353Y467D02*
X360Y467D01*
X387Y467D02*
X417Y467D01*
X502Y467D02*
X518Y467D01*
X612Y467D02*
X621Y467D01*
X662Y467D02*
X669Y467D01*
X1Y466D02*
X8Y466D01*
X74Y466D02*
X85Y466D01*
X235Y466D02*
X246Y466D01*
X335Y466D02*
X341Y466D01*
X353Y466D02*
X361Y466D01*
X387Y466D02*
X416Y466D01*
X502Y466D02*
X518Y466D01*
X612Y466D02*
X621Y466D01*
X662Y466D02*
X669Y466D01*
X1Y465D02*
X8Y465D01*
X75Y465D02*
X86Y465D01*
X234Y465D02*
X246Y465D01*
X335Y465D02*
X341Y465D01*
X354Y465D02*
X361Y465D01*
X387Y465D02*
X415Y465D01*
X502Y465D02*
X518Y465D01*
X611Y465D02*
X620Y465D01*
X662Y465D02*
X669Y465D01*
X1Y464D02*
X8Y464D01*
X75Y464D02*
X87Y464D01*
X233Y464D02*
X245Y464D01*
X335Y464D02*
X341Y464D01*
X354Y464D02*
X362Y464D01*
X408Y464D02*
X414Y464D01*
X501Y464D02*
X518Y464D01*
X611Y464D02*
X620Y464D01*
X662Y464D02*
X669Y464D01*
X1Y463D02*
X8Y463D01*
X76Y463D02*
X88Y463D01*
X232Y463D02*
X244Y463D01*
X335Y463D02*
X341Y463D01*
X355Y463D02*
X362Y463D01*
X408Y463D02*
X414Y463D01*
X501Y463D02*
X519Y463D01*
X611Y463D02*
X620Y463D01*
X662Y463D02*
X669Y463D01*
X1Y462D02*
X8Y462D01*
X77Y462D02*
X89Y462D01*
X232Y462D02*
X243Y462D01*
X335Y462D02*
X341Y462D01*
X356Y462D02*
X363Y462D01*
X408Y462D02*
X414Y462D01*
X501Y462D02*
X519Y462D01*
X611Y462D02*
X620Y462D01*
X662Y462D02*
X669Y462D01*
X1Y461D02*
X8Y461D01*
X77Y461D02*
X89Y461D01*
X231Y461D02*
X243Y461D01*
X335Y461D02*
X341Y461D01*
X356Y461D02*
X363Y461D01*
X408Y461D02*
X414Y461D01*
X501Y461D02*
X519Y461D01*
X610Y461D02*
X620Y461D01*
X662Y461D02*
X669Y461D01*
X1Y460D02*
X8Y460D01*
X78Y460D02*
X90Y460D01*
X230Y460D02*
X242Y460D01*
X335Y460D02*
X341Y460D01*
X357Y460D02*
X364Y460D01*
X408Y460D02*
X414Y460D01*
X500Y460D02*
X520Y460D01*
X610Y460D02*
X619Y460D01*
X662Y460D02*
X669Y460D01*
X1Y459D02*
X8Y459D01*
X79Y459D02*
X91Y459D01*
X229Y459D02*
X241Y459D01*
X335Y459D02*
X341Y459D01*
X357Y459D02*
X365Y459D01*
X408Y459D02*
X414Y459D01*
X501Y459D02*
X510Y459D01*
X610Y459D02*
X619Y459D01*
X662Y459D02*
X669Y459D01*
X1Y458D02*
X8Y458D01*
X80Y458D02*
X92Y458D01*
X228Y458D02*
X240Y458D01*
X335Y458D02*
X341Y458D01*
X358Y458D02*
X365Y458D01*
X408Y458D02*
X414Y458D01*
X501Y458D02*
X510Y458D01*
X610Y458D02*
X619Y458D01*
X662Y458D02*
X669Y458D01*
X1Y457D02*
X8Y457D01*
X81Y457D02*
X93Y457D01*
X227Y457D02*
X239Y457D01*
X335Y457D02*
X341Y457D01*
X359Y457D02*
X366Y457D01*
X408Y457D02*
X414Y457D01*
X501Y457D02*
X511Y457D01*
X609Y457D02*
X619Y457D01*
X662Y457D02*
X669Y457D01*
X1Y456D02*
X8Y456D01*
X82Y456D02*
X94Y456D01*
X226Y456D02*
X239Y456D01*
X335Y456D02*
X341Y456D01*
X359Y456D02*
X366Y456D01*
X408Y456D02*
X414Y456D01*
X501Y456D02*
X511Y456D01*
X609Y456D02*
X618Y456D01*
X662Y456D02*
X669Y456D01*
X1Y455D02*
X8Y455D01*
X82Y455D02*
X95Y455D01*
X225Y455D02*
X238Y455D01*
X335Y455D02*
X341Y455D01*
X360Y455D02*
X367Y455D01*
X408Y455D02*
X414Y455D01*
X502Y455D02*
X511Y455D01*
X608Y455D02*
X618Y455D01*
X662Y455D02*
X669Y455D01*
X1Y454D02*
X8Y454D01*
X83Y454D02*
X97Y454D01*
X224Y454D02*
X237Y454D01*
X335Y454D02*
X341Y454D01*
X360Y454D02*
X368Y454D01*
X408Y454D02*
X414Y454D01*
X502Y454D02*
X512Y454D01*
X608Y454D02*
X618Y454D01*
X662Y454D02*
X669Y454D01*
X1Y453D02*
X8Y453D01*
X84Y453D02*
X98Y453D01*
X222Y453D02*
X236Y453D01*
X335Y453D02*
X341Y453D01*
X361Y453D02*
X368Y453D01*
X408Y453D02*
X414Y453D01*
X503Y453D02*
X512Y453D01*
X608Y453D02*
X617Y453D01*
X662Y453D02*
X669Y453D01*
X1Y452D02*
X8Y452D01*
X85Y452D02*
X99Y452D01*
X221Y452D02*
X235Y452D01*
X335Y452D02*
X341Y452D01*
X362Y452D02*
X369Y452D01*
X408Y452D02*
X414Y452D01*
X503Y452D02*
X513Y452D01*
X607Y452D02*
X617Y452D01*
X662Y452D02*
X669Y452D01*
X1Y451D02*
X8Y451D01*
X86Y451D02*
X100Y451D01*
X220Y451D02*
X234Y451D01*
X335Y451D02*
X341Y451D01*
X362Y451D02*
X369Y451D01*
X408Y451D02*
X414Y451D01*
X503Y451D02*
X513Y451D01*
X607Y451D02*
X616Y451D01*
X662Y451D02*
X669Y451D01*
X1Y450D02*
X8Y450D01*
X87Y450D02*
X101Y450D01*
X219Y450D02*
X233Y450D01*
X336Y450D02*
X341Y450D01*
X363Y450D02*
X369Y450D01*
X408Y450D02*
X414Y450D01*
X504Y450D02*
X514Y450D01*
X606Y450D02*
X616Y450D01*
X662Y450D02*
X669Y450D01*
X1Y449D02*
X8Y449D01*
X88Y449D02*
X103Y449D01*
X217Y449D02*
X232Y449D01*
X336Y449D02*
X341Y449D01*
X363Y449D02*
X369Y449D01*
X408Y449D02*
X413Y449D01*
X504Y449D02*
X514Y449D01*
X605Y449D02*
X616Y449D01*
X662Y449D02*
X669Y449D01*
X1Y448D02*
X8Y448D01*
X89Y448D02*
X104Y448D01*
X216Y448D02*
X231Y448D01*
X337Y448D02*
X340Y448D01*
X364Y448D02*
X368Y448D01*
X409Y448D02*
X413Y448D01*
X505Y448D02*
X515Y448D01*
X605Y448D02*
X615Y448D01*
X662Y448D02*
X669Y448D01*
X1Y447D02*
X8Y447D01*
X90Y447D02*
X105Y447D01*
X215Y447D02*
X230Y447D01*
X505Y447D02*
X516Y447D01*
X604Y447D02*
X615Y447D01*
X662Y447D02*
X669Y447D01*
X1Y446D02*
X8Y446D01*
X92Y446D02*
X107Y446D01*
X213Y446D02*
X229Y446D01*
X506Y446D02*
X516Y446D01*
X604Y446D02*
X614Y446D01*
X662Y446D02*
X669Y446D01*
X1Y445D02*
X8Y445D01*
X93Y445D02*
X108Y445D01*
X212Y445D02*
X227Y445D01*
X506Y445D02*
X517Y445D01*
X603Y445D02*
X614Y445D01*
X662Y445D02*
X669Y445D01*
X1Y444D02*
X8Y444D01*
X94Y444D02*
X110Y444D01*
X210Y444D02*
X226Y444D01*
X507Y444D02*
X518Y444D01*
X602Y444D02*
X613Y444D01*
X662Y444D02*
X669Y444D01*
X1Y443D02*
X8Y443D01*
X95Y443D02*
X112Y443D01*
X209Y443D02*
X225Y443D01*
X507Y443D02*
X518Y443D01*
X601Y443D02*
X612Y443D01*
X662Y443D02*
X669Y443D01*
X1Y442D02*
X8Y442D01*
X96Y442D02*
X113Y442D01*
X207Y442D02*
X224Y442D01*
X508Y442D02*
X519Y442D01*
X601Y442D02*
X612Y442D01*
X662Y442D02*
X669Y442D01*
X1Y441D02*
X8Y441D01*
X98Y441D02*
X115Y441D01*
X205Y441D02*
X222Y441D01*
X509Y441D02*
X520Y441D01*
X600Y441D02*
X611Y441D01*
X662Y441D02*
X669Y441D01*
X1Y440D02*
X8Y440D01*
X99Y440D02*
X117Y440D01*
X203Y440D02*
X221Y440D01*
X509Y440D02*
X521Y440D01*
X599Y440D02*
X610Y440D01*
X662Y440D02*
X669Y440D01*
X1Y439D02*
X8Y439D01*
X100Y439D02*
X119Y439D01*
X201Y439D02*
X220Y439D01*
X510Y439D02*
X522Y439D01*
X598Y439D02*
X610Y439D01*
X662Y439D02*
X669Y439D01*
X1Y438D02*
X8Y438D01*
X102Y438D02*
X121Y438D01*
X199Y438D02*
X218Y438D01*
X511Y438D02*
X523Y438D01*
X597Y438D02*
X609Y438D01*
X662Y438D02*
X669Y438D01*
X1Y437D02*
X8Y437D01*
X103Y437D02*
X123Y437D01*
X197Y437D02*
X217Y437D01*
X512Y437D02*
X524Y437D01*
X596Y437D02*
X608Y437D01*
X662Y437D02*
X669Y437D01*
X1Y436D02*
X8Y436D01*
X105Y436D02*
X126Y436D01*
X194Y436D02*
X215Y436D01*
X512Y436D02*
X525Y436D01*
X595Y436D02*
X608Y436D01*
X662Y436D02*
X669Y436D01*
X1Y435D02*
X8Y435D01*
X107Y435D02*
X129Y435D01*
X191Y435D02*
X213Y435D01*
X513Y435D02*
X526Y435D01*
X594Y435D02*
X607Y435D01*
X662Y435D02*
X669Y435D01*
X1Y434D02*
X8Y434D01*
X47Y434D02*
X65Y434D01*
X84Y434D02*
X103Y434D01*
X108Y434D02*
X132Y434D01*
X188Y434D02*
X212Y434D01*
X514Y434D02*
X527Y434D01*
X592Y434D02*
X606Y434D01*
X662Y434D02*
X669Y434D01*
X1Y433D02*
X8Y433D01*
X45Y433D02*
X66Y433D01*
X84Y433D02*
X103Y433D01*
X110Y433D02*
X135Y433D01*
X185Y433D02*
X210Y433D01*
X515Y433D02*
X529Y433D01*
X591Y433D02*
X605Y433D01*
X662Y433D02*
X669Y433D01*
X1Y432D02*
X8Y432D01*
X44Y432D02*
X67Y432D01*
X83Y432D02*
X103Y432D01*
X112Y432D02*
X140Y432D01*
X180Y432D02*
X208Y432D01*
X516Y432D02*
X530Y432D01*
X590Y432D02*
X604Y432D01*
X662Y432D02*
X669Y432D01*
X1Y431D02*
X8Y431D01*
X43Y431D02*
X67Y431D01*
X83Y431D02*
X103Y431D01*
X114Y431D02*
X145Y431D01*
X175Y431D02*
X206Y431D01*
X517Y431D02*
X532Y431D01*
X588Y431D02*
X603Y431D01*
X662Y431D02*
X669Y431D01*
X1Y430D02*
X8Y430D01*
X42Y430D02*
X66Y430D01*
X83Y430D02*
X103Y430D01*
X116Y430D02*
X159Y430D01*
X162Y430D02*
X204Y430D01*
X518Y430D02*
X533Y430D01*
X587Y430D02*
X602Y430D01*
X662Y430D02*
X669Y430D01*
X1Y429D02*
X8Y429D01*
X42Y429D02*
X66Y429D01*
X84Y429D02*
X103Y429D01*
X118Y429D02*
X202Y429D01*
X519Y429D02*
X535Y429D01*
X585Y429D02*
X601Y429D01*
X662Y429D02*
X669Y429D01*
X1Y428D02*
X8Y428D01*
X41Y428D02*
X64Y428D01*
X86Y428D02*
X103Y428D01*
X121Y428D02*
X200Y428D01*
X520Y428D02*
X537Y428D01*
X583Y428D02*
X600Y428D01*
X662Y428D02*
X669Y428D01*
X1Y427D02*
X8Y427D01*
X41Y427D02*
X48Y427D01*
X97Y427D02*
X103Y427D01*
X123Y427D02*
X197Y427D01*
X521Y427D02*
X539Y427D01*
X581Y427D02*
X599Y427D01*
X662Y427D02*
X669Y427D01*
X1Y426D02*
X8Y426D01*
X40Y426D02*
X47Y426D01*
X97Y426D02*
X103Y426D01*
X126Y426D02*
X194Y426D01*
X523Y426D02*
X542Y426D01*
X578Y426D02*
X597Y426D01*
X662Y426D02*
X669Y426D01*
X1Y425D02*
X8Y425D01*
X40Y425D02*
X47Y425D01*
X97Y425D02*
X103Y425D01*
X129Y425D02*
X191Y425D01*
X524Y425D02*
X545Y425D01*
X575Y425D02*
X596Y425D01*
X662Y425D02*
X669Y425D01*
X1Y424D02*
X8Y424D01*
X39Y424D02*
X46Y424D01*
X97Y424D02*
X103Y424D01*
X132Y424D02*
X188Y424D01*
X525Y424D02*
X549Y424D01*
X571Y424D02*
X595Y424D01*
X662Y424D02*
X669Y424D01*
X1Y423D02*
X8Y423D01*
X39Y423D02*
X46Y423D01*
X97Y423D02*
X103Y423D01*
X136Y423D02*
X184Y423D01*
X527Y423D02*
X559Y423D01*
X561Y423D02*
X593Y423D01*
X662Y423D02*
X669Y423D01*
X1Y422D02*
X8Y422D01*
X38Y422D02*
X45Y422D01*
X97Y422D02*
X103Y422D01*
X140Y422D02*
X180Y422D01*
X528Y422D02*
X591Y422D01*
X662Y422D02*
X669Y422D01*
X1Y421D02*
X8Y421D01*
X38Y421D02*
X45Y421D01*
X97Y421D02*
X103Y421D01*
X146Y421D02*
X174Y421D01*
X530Y421D02*
X590Y421D01*
X662Y421D02*
X669Y421D01*
X1Y420D02*
X8Y420D01*
X37Y420D02*
X44Y420D01*
X97Y420D02*
X103Y420D01*
X160Y420D02*
X160Y420D01*
X532Y420D02*
X588Y420D01*
X662Y420D02*
X669Y420D01*
X1Y419D02*
X8Y419D01*
X37Y419D02*
X44Y419D01*
X97Y419D02*
X103Y419D01*
X534Y419D02*
X586Y419D01*
X662Y419D02*
X669Y419D01*
X1Y418D02*
X8Y418D01*
X36Y418D02*
X43Y418D01*
X97Y418D02*
X103Y418D01*
X536Y418D02*
X584Y418D01*
X662Y418D02*
X669Y418D01*
X1Y417D02*
X8Y417D01*
X36Y417D02*
X43Y417D01*
X97Y417D02*
X103Y417D01*
X539Y417D02*
X581Y417D01*
X662Y417D02*
X669Y417D01*
X1Y416D02*
X8Y416D01*
X35Y416D02*
X42Y416D01*
X97Y416D02*
X103Y416D01*
X542Y416D02*
X578Y416D01*
X662Y416D02*
X669Y416D01*
X1Y415D02*
X8Y415D01*
X35Y415D02*
X42Y415D01*
X97Y415D02*
X103Y415D01*
X545Y415D02*
X575Y415D01*
X662Y415D02*
X669Y415D01*
X1Y414D02*
X8Y414D01*
X34Y414D02*
X41Y414D01*
X97Y414D02*
X103Y414D01*
X550Y414D02*
X570Y414D01*
X662Y414D02*
X669Y414D01*
X1Y413D02*
X8Y413D01*
X34Y413D02*
X41Y413D01*
X97Y413D02*
X103Y413D01*
X560Y413D02*
X560Y413D01*
X662Y413D02*
X669Y413D01*
X1Y412D02*
X8Y412D01*
X34Y412D02*
X40Y412D01*
X97Y412D02*
X103Y412D01*
X662Y412D02*
X669Y412D01*
X1Y411D02*
X8Y411D01*
X33Y411D02*
X40Y411D01*
X97Y411D02*
X103Y411D01*
X662Y411D02*
X669Y411D01*
X1Y410D02*
X8Y410D01*
X33Y410D02*
X39Y410D01*
X97Y410D02*
X103Y410D01*
X662Y410D02*
X669Y410D01*
X1Y409D02*
X8Y409D01*
X33Y409D02*
X39Y409D01*
X97Y409D02*
X103Y409D01*
X662Y409D02*
X669Y409D01*
X1Y408D02*
X8Y408D01*
X33Y408D02*
X39Y408D01*
X97Y408D02*
X103Y408D01*
X662Y408D02*
X669Y408D01*
X1Y407D02*
X8Y407D01*
X33Y407D02*
X39Y407D01*
X97Y407D02*
X103Y407D01*
X662Y407D02*
X669Y407D01*
X1Y406D02*
X8Y406D01*
X33Y406D02*
X39Y406D01*
X97Y406D02*
X103Y406D01*
X662Y406D02*
X669Y406D01*
X1Y405D02*
X8Y405D01*
X33Y405D02*
X40Y405D01*
X97Y405D02*
X103Y405D01*
X113Y405D02*
X115Y405D01*
X662Y405D02*
X669Y405D01*
X1Y404D02*
X8Y404D01*
X34Y404D02*
X40Y404D01*
X97Y404D02*
X103Y404D01*
X111Y404D02*
X116Y404D01*
X662Y404D02*
X669Y404D01*
X1Y403D02*
X8Y403D01*
X34Y403D02*
X40Y403D01*
X97Y403D02*
X103Y403D01*
X111Y403D02*
X116Y403D01*
X662Y403D02*
X669Y403D01*
X1Y402D02*
X8Y402D01*
X34Y402D02*
X41Y402D01*
X97Y402D02*
X103Y402D01*
X111Y402D02*
X117Y402D01*
X662Y402D02*
X669Y402D01*
X1Y401D02*
X8Y401D01*
X35Y401D02*
X41Y401D01*
X97Y401D02*
X103Y401D01*
X111Y401D02*
X117Y401D01*
X662Y401D02*
X669Y401D01*
X1Y400D02*
X8Y400D01*
X35Y400D02*
X42Y400D01*
X97Y400D02*
X103Y400D01*
X111Y400D02*
X117Y400D01*
X662Y400D02*
X669Y400D01*
X1Y399D02*
X8Y399D01*
X36Y399D02*
X42Y399D01*
X97Y399D02*
X103Y399D01*
X111Y399D02*
X117Y399D01*
X662Y399D02*
X669Y399D01*
X1Y398D02*
X8Y398D01*
X36Y398D02*
X43Y398D01*
X97Y398D02*
X103Y398D01*
X111Y398D02*
X117Y398D01*
X662Y398D02*
X669Y398D01*
X1Y397D02*
X8Y397D01*
X37Y397D02*
X43Y397D01*
X97Y397D02*
X103Y397D01*
X111Y397D02*
X117Y397D01*
X662Y397D02*
X669Y397D01*
X1Y396D02*
X8Y396D01*
X37Y396D02*
X44Y396D01*
X97Y396D02*
X103Y396D01*
X111Y396D02*
X117Y396D01*
X662Y396D02*
X669Y396D01*
X1Y395D02*
X8Y395D01*
X38Y395D02*
X44Y395D01*
X97Y395D02*
X103Y395D01*
X111Y395D02*
X117Y395D01*
X662Y395D02*
X669Y395D01*
X1Y394D02*
X8Y394D01*
X38Y394D02*
X45Y394D01*
X97Y394D02*
X103Y394D01*
X111Y394D02*
X117Y394D01*
X339Y394D02*
X366Y394D01*
X391Y394D02*
X409Y394D01*
X539Y394D02*
X566Y394D01*
X590Y394D02*
X619Y394D01*
X662Y394D02*
X669Y394D01*
X1Y393D02*
X8Y393D01*
X39Y393D02*
X45Y393D01*
X97Y393D02*
X103Y393D01*
X111Y393D02*
X117Y393D01*
X339Y393D02*
X368Y393D01*
X390Y393D02*
X409Y393D01*
X539Y393D02*
X568Y393D01*
X590Y393D02*
X620Y393D01*
X662Y393D02*
X669Y393D01*
X1Y392D02*
X8Y392D01*
X39Y392D02*
X46Y392D01*
X97Y392D02*
X103Y392D01*
X111Y392D02*
X117Y392D01*
X339Y392D02*
X369Y392D01*
X389Y392D02*
X409Y392D01*
X539Y392D02*
X569Y392D01*
X589Y392D02*
X621Y392D01*
X662Y392D02*
X669Y392D01*
X1Y391D02*
X8Y391D01*
X40Y391D02*
X46Y391D01*
X97Y391D02*
X103Y391D01*
X111Y391D02*
X117Y391D01*
X339Y391D02*
X370Y391D01*
X389Y391D02*
X409Y391D01*
X539Y391D02*
X570Y391D01*
X589Y391D02*
X622Y391D01*
X662Y391D02*
X669Y391D01*
X1Y390D02*
X8Y390D01*
X40Y390D02*
X47Y390D01*
X97Y390D02*
X103Y390D01*
X111Y390D02*
X117Y390D01*
X339Y390D02*
X371Y390D01*
X389Y390D02*
X409Y390D01*
X539Y390D02*
X571Y390D01*
X589Y390D02*
X622Y390D01*
X662Y390D02*
X669Y390D01*
X1Y389D02*
X8Y389D01*
X41Y389D02*
X48Y389D01*
X97Y389D02*
X103Y389D01*
X111Y389D02*
X117Y389D01*
X339Y389D02*
X371Y389D01*
X390Y389D02*
X409Y389D01*
X539Y389D02*
X571Y389D01*
X590Y389D02*
X622Y389D01*
X662Y389D02*
X669Y389D01*
X1Y388D02*
X8Y388D01*
X41Y388D02*
X49Y388D01*
X97Y388D02*
X103Y388D01*
X110Y388D02*
X117Y388D01*
X339Y388D02*
X372Y388D01*
X391Y388D02*
X409Y388D01*
X539Y388D02*
X572Y388D01*
X591Y388D02*
X623Y388D01*
X662Y388D02*
X669Y388D01*
X1Y387D02*
X8Y387D01*
X42Y387D02*
X65Y387D01*
X85Y387D02*
X117Y387D01*
X339Y387D02*
X345Y387D01*
X365Y387D02*
X372Y387D01*
X403Y387D02*
X409Y387D01*
X539Y387D02*
X545Y387D01*
X565Y387D02*
X572Y387D01*
X617Y387D02*
X623Y387D01*
X662Y387D02*
X669Y387D01*
X1Y386D02*
X8Y386D01*
X42Y386D02*
X66Y386D01*
X84Y386D02*
X117Y386D01*
X339Y386D02*
X345Y386D01*
X366Y386D02*
X372Y386D01*
X403Y386D02*
X409Y386D01*
X539Y386D02*
X545Y386D01*
X566Y386D02*
X572Y386D01*
X617Y386D02*
X623Y386D01*
X662Y386D02*
X669Y386D01*
X1Y385D02*
X8Y385D01*
X43Y385D02*
X67Y385D01*
X83Y385D02*
X117Y385D01*
X339Y385D02*
X345Y385D01*
X366Y385D02*
X373Y385D01*
X403Y385D02*
X409Y385D01*
X539Y385D02*
X545Y385D01*
X566Y385D02*
X573Y385D01*
X617Y385D02*
X623Y385D01*
X662Y385D02*
X669Y385D01*
X1Y384D02*
X8Y384D01*
X44Y384D02*
X67Y384D01*
X83Y384D02*
X117Y384D01*
X339Y384D02*
X345Y384D01*
X367Y384D02*
X373Y384D01*
X403Y384D02*
X409Y384D01*
X539Y384D02*
X545Y384D01*
X567Y384D02*
X573Y384D01*
X617Y384D02*
X623Y384D01*
X662Y384D02*
X669Y384D01*
X1Y383D02*
X8Y383D01*
X45Y383D02*
X66Y383D01*
X83Y383D02*
X116Y383D01*
X339Y383D02*
X345Y383D01*
X367Y383D02*
X373Y383D01*
X403Y383D02*
X409Y383D01*
X539Y383D02*
X545Y383D01*
X567Y383D02*
X573Y383D01*
X617Y383D02*
X623Y383D01*
X662Y383D02*
X669Y383D01*
X1Y382D02*
X8Y382D01*
X46Y382D02*
X66Y382D01*
X84Y382D02*
X116Y382D01*
X339Y382D02*
X345Y382D01*
X367Y382D02*
X373Y382D01*
X403Y382D02*
X409Y382D01*
X539Y382D02*
X545Y382D01*
X567Y382D02*
X573Y382D01*
X617Y382D02*
X623Y382D01*
X662Y382D02*
X669Y382D01*
X1Y381D02*
X8Y381D01*
X49Y381D02*
X64Y381D01*
X85Y381D02*
X114Y381D01*
X339Y381D02*
X345Y381D01*
X367Y381D02*
X373Y381D01*
X403Y381D02*
X409Y381D01*
X539Y381D02*
X545Y381D01*
X567Y381D02*
X573Y381D01*
X617Y381D02*
X623Y381D01*
X662Y381D02*
X669Y381D01*
X1Y380D02*
X8Y380D01*
X305Y380D02*
X319Y380D01*
X339Y380D02*
X345Y380D01*
X367Y380D02*
X373Y380D01*
X403Y380D02*
X409Y380D01*
X505Y380D02*
X519Y380D01*
X539Y380D02*
X545Y380D01*
X566Y380D02*
X573Y380D01*
X617Y380D02*
X623Y380D01*
X662Y380D02*
X669Y380D01*
X1Y379D02*
X8Y379D01*
X301Y379D02*
X322Y379D01*
X339Y379D02*
X345Y379D01*
X366Y379D02*
X373Y379D01*
X403Y379D02*
X409Y379D01*
X501Y379D02*
X521Y379D01*
X539Y379D02*
X545Y379D01*
X566Y379D02*
X572Y379D01*
X617Y379D02*
X623Y379D01*
X662Y379D02*
X669Y379D01*
X1Y378D02*
X8Y378D01*
X299Y378D02*
X322Y378D01*
X339Y378D02*
X345Y378D01*
X365Y378D02*
X372Y378D01*
X403Y378D02*
X409Y378D01*
X499Y378D02*
X522Y378D01*
X539Y378D02*
X545Y378D01*
X565Y378D02*
X572Y378D01*
X617Y378D02*
X623Y378D01*
X662Y378D02*
X669Y378D01*
X1Y377D02*
X8Y377D01*
X298Y377D02*
X323Y377D01*
X339Y377D02*
X372Y377D01*
X403Y377D02*
X409Y377D01*
X498Y377D02*
X522Y377D01*
X539Y377D02*
X572Y377D01*
X617Y377D02*
X623Y377D01*
X662Y377D02*
X669Y377D01*
X1Y376D02*
X8Y376D01*
X297Y376D02*
X323Y376D01*
X339Y376D02*
X372Y376D01*
X403Y376D02*
X409Y376D01*
X497Y376D02*
X523Y376D01*
X539Y376D02*
X571Y376D01*
X617Y376D02*
X623Y376D01*
X662Y376D02*
X669Y376D01*
X1Y375D02*
X8Y375D01*
X296Y375D02*
X322Y375D01*
X339Y375D02*
X371Y375D01*
X403Y375D02*
X409Y375D01*
X495Y375D02*
X522Y375D01*
X539Y375D02*
X571Y375D01*
X617Y375D02*
X623Y375D01*
X662Y375D02*
X669Y375D01*
X1Y374D02*
X8Y374D01*
X294Y374D02*
X322Y374D01*
X339Y374D02*
X370Y374D01*
X403Y374D02*
X409Y374D01*
X494Y374D02*
X521Y374D01*
X539Y374D02*
X570Y374D01*
X617Y374D02*
X623Y374D01*
X662Y374D02*
X669Y374D01*
X1Y373D02*
X8Y373D01*
X293Y373D02*
X305Y373D01*
X339Y373D02*
X369Y373D01*
X403Y373D02*
X409Y373D01*
X493Y373D02*
X505Y373D01*
X539Y373D02*
X569Y373D01*
X617Y373D02*
X623Y373D01*
X662Y373D02*
X669Y373D01*
X1Y372D02*
X8Y372D01*
X292Y372D02*
X302Y372D01*
X339Y372D02*
X368Y372D01*
X403Y372D02*
X409Y372D01*
X492Y372D02*
X502Y372D01*
X539Y372D02*
X568Y372D01*
X617Y372D02*
X623Y372D01*
X662Y372D02*
X669Y372D01*
X1Y371D02*
X8Y371D01*
X291Y371D02*
X301Y371D01*
X339Y371D02*
X366Y371D01*
X403Y371D02*
X409Y371D01*
X491Y371D02*
X501Y371D01*
X539Y371D02*
X566Y371D01*
X595Y371D02*
X623Y371D01*
X662Y371D02*
X669Y371D01*
X1Y370D02*
X8Y370D01*
X291Y370D02*
X300Y370D01*
X339Y370D02*
X346Y370D01*
X351Y370D02*
X359Y370D01*
X403Y370D02*
X409Y370D01*
X491Y370D02*
X500Y370D01*
X539Y370D02*
X545Y370D01*
X550Y370D02*
X559Y370D01*
X592Y370D02*
X622Y370D01*
X662Y370D02*
X669Y370D01*
X1Y369D02*
X8Y369D01*
X290Y369D02*
X299Y369D01*
X339Y369D02*
X345Y369D01*
X351Y369D02*
X359Y369D01*
X403Y369D02*
X409Y369D01*
X490Y369D02*
X498Y369D01*
X539Y369D02*
X545Y369D01*
X551Y369D02*
X559Y369D01*
X591Y369D02*
X622Y369D01*
X662Y369D02*
X669Y369D01*
X1Y368D02*
X8Y368D01*
X290Y368D02*
X297Y368D01*
X339Y368D02*
X345Y368D01*
X352Y368D02*
X359Y368D01*
X403Y368D02*
X409Y368D01*
X490Y368D02*
X497Y368D01*
X539Y368D02*
X545Y368D01*
X552Y368D02*
X559Y368D01*
X590Y368D02*
X622Y368D01*
X662Y368D02*
X669Y368D01*
X1Y367D02*
X8Y367D01*
X289Y367D02*
X296Y367D01*
X339Y367D02*
X345Y367D01*
X353Y367D02*
X360Y367D01*
X403Y367D02*
X409Y367D01*
X489Y367D02*
X496Y367D01*
X539Y367D02*
X545Y367D01*
X553Y367D02*
X560Y367D01*
X590Y367D02*
X621Y367D01*
X662Y367D02*
X669Y367D01*
X1Y366D02*
X8Y366D01*
X289Y366D02*
X295Y366D01*
X339Y366D02*
X345Y366D01*
X353Y366D02*
X360Y366D01*
X403Y366D02*
X409Y366D01*
X489Y366D02*
X495Y366D01*
X539Y366D02*
X545Y366D01*
X553Y366D02*
X560Y366D01*
X589Y366D02*
X620Y366D01*
X662Y366D02*
X669Y366D01*
X1Y365D02*
X8Y365D01*
X289Y365D02*
X295Y365D01*
X339Y365D02*
X345Y365D01*
X354Y365D02*
X361Y365D01*
X403Y365D02*
X409Y365D01*
X419Y365D02*
X420Y365D01*
X489Y365D02*
X495Y365D01*
X539Y365D02*
X545Y365D01*
X554Y365D02*
X561Y365D01*
X589Y365D02*
X619Y365D01*
X662Y365D02*
X669Y365D01*
X1Y364D02*
X8Y364D01*
X289Y364D02*
X295Y364D01*
X339Y364D02*
X345Y364D01*
X354Y364D02*
X362Y364D01*
X403Y364D02*
X409Y364D01*
X417Y364D02*
X422Y364D01*
X489Y364D02*
X495Y364D01*
X539Y364D02*
X545Y364D01*
X554Y364D02*
X562Y364D01*
X589Y364D02*
X595Y364D01*
X662Y364D02*
X669Y364D01*
X1Y363D02*
X8Y363D01*
X289Y363D02*
X295Y363D01*
X339Y363D02*
X345Y363D01*
X355Y363D02*
X362Y363D01*
X403Y363D02*
X409Y363D01*
X417Y363D02*
X422Y363D01*
X489Y363D02*
X495Y363D01*
X539Y363D02*
X545Y363D01*
X555Y363D02*
X562Y363D01*
X589Y363D02*
X595Y363D01*
X662Y363D02*
X669Y363D01*
X1Y362D02*
X8Y362D01*
X289Y362D02*
X295Y362D01*
X339Y362D02*
X345Y362D01*
X356Y362D02*
X363Y362D01*
X403Y362D02*
X409Y362D01*
X417Y362D02*
X423Y362D01*
X489Y362D02*
X495Y362D01*
X539Y362D02*
X545Y362D01*
X555Y362D02*
X563Y362D01*
X589Y362D02*
X595Y362D01*
X662Y362D02*
X669Y362D01*
X1Y361D02*
X8Y361D01*
X289Y361D02*
X295Y361D01*
X339Y361D02*
X345Y361D01*
X356Y361D02*
X363Y361D01*
X403Y361D02*
X409Y361D01*
X417Y361D02*
X423Y361D01*
X489Y361D02*
X495Y361D01*
X539Y361D02*
X545Y361D01*
X556Y361D02*
X563Y361D01*
X589Y361D02*
X595Y361D01*
X662Y361D02*
X669Y361D01*
X1Y360D02*
X8Y360D01*
X289Y360D02*
X295Y360D01*
X339Y360D02*
X345Y360D01*
X357Y360D02*
X364Y360D01*
X403Y360D02*
X409Y360D01*
X417Y360D02*
X423Y360D01*
X489Y360D02*
X495Y360D01*
X539Y360D02*
X545Y360D01*
X557Y360D02*
X564Y360D01*
X589Y360D02*
X595Y360D01*
X662Y360D02*
X669Y360D01*
X1Y359D02*
X8Y359D01*
X289Y359D02*
X295Y359D01*
X339Y359D02*
X345Y359D01*
X357Y359D02*
X365Y359D01*
X403Y359D02*
X409Y359D01*
X417Y359D02*
X423Y359D01*
X489Y359D02*
X495Y359D01*
X539Y359D02*
X545Y359D01*
X557Y359D02*
X564Y359D01*
X589Y359D02*
X595Y359D01*
X662Y359D02*
X669Y359D01*
X1Y358D02*
X8Y358D01*
X289Y358D02*
X295Y358D01*
X339Y358D02*
X345Y358D01*
X358Y358D02*
X365Y358D01*
X403Y358D02*
X409Y358D01*
X417Y358D02*
X423Y358D01*
X489Y358D02*
X495Y358D01*
X539Y358D02*
X545Y358D01*
X558Y358D02*
X565Y358D01*
X589Y358D02*
X595Y358D01*
X662Y358D02*
X669Y358D01*
X1Y357D02*
X8Y357D01*
X289Y357D02*
X295Y357D01*
X339Y357D02*
X345Y357D01*
X358Y357D02*
X366Y357D01*
X403Y357D02*
X409Y357D01*
X417Y357D02*
X423Y357D01*
X489Y357D02*
X495Y357D01*
X539Y357D02*
X545Y357D01*
X558Y357D02*
X566Y357D01*
X589Y357D02*
X595Y357D01*
X662Y357D02*
X669Y357D01*
X1Y356D02*
X8Y356D01*
X289Y356D02*
X295Y356D01*
X339Y356D02*
X345Y356D01*
X359Y356D02*
X366Y356D01*
X403Y356D02*
X409Y356D01*
X417Y356D02*
X423Y356D01*
X489Y356D02*
X495Y356D01*
X539Y356D02*
X545Y356D01*
X559Y356D02*
X566Y356D01*
X589Y356D02*
X595Y356D01*
X662Y356D02*
X669Y356D01*
X1Y355D02*
X8Y355D01*
X289Y355D02*
X295Y355D01*
X339Y355D02*
X345Y355D01*
X360Y355D02*
X367Y355D01*
X403Y355D02*
X409Y355D01*
X417Y355D02*
X423Y355D01*
X489Y355D02*
X495Y355D01*
X539Y355D02*
X545Y355D01*
X560Y355D02*
X567Y355D01*
X589Y355D02*
X595Y355D01*
X662Y355D02*
X669Y355D01*
X1Y354D02*
X8Y354D01*
X289Y354D02*
X296Y354D01*
X339Y354D02*
X345Y354D01*
X360Y354D02*
X367Y354D01*
X403Y354D02*
X409Y354D01*
X417Y354D02*
X423Y354D01*
X489Y354D02*
X496Y354D01*
X539Y354D02*
X545Y354D01*
X560Y354D02*
X567Y354D01*
X589Y354D02*
X595Y354D01*
X662Y354D02*
X669Y354D01*
X1Y353D02*
X8Y353D01*
X290Y353D02*
X297Y353D01*
X339Y353D02*
X345Y353D01*
X361Y353D02*
X368Y353D01*
X403Y353D02*
X409Y353D01*
X417Y353D02*
X423Y353D01*
X490Y353D02*
X497Y353D01*
X539Y353D02*
X545Y353D01*
X561Y353D02*
X568Y353D01*
X589Y353D02*
X595Y353D01*
X662Y353D02*
X669Y353D01*
X1Y352D02*
X8Y352D01*
X290Y352D02*
X298Y352D01*
X339Y352D02*
X345Y352D01*
X361Y352D02*
X369Y352D01*
X403Y352D02*
X409Y352D01*
X417Y352D02*
X423Y352D01*
X490Y352D02*
X498Y352D01*
X539Y352D02*
X545Y352D01*
X561Y352D02*
X569Y352D01*
X589Y352D02*
X595Y352D01*
X662Y352D02*
X669Y352D01*
X1Y351D02*
X8Y351D01*
X290Y351D02*
X299Y351D01*
X339Y351D02*
X345Y351D01*
X362Y351D02*
X369Y351D01*
X403Y351D02*
X409Y351D01*
X417Y351D02*
X423Y351D01*
X490Y351D02*
X499Y351D01*
X539Y351D02*
X545Y351D01*
X562Y351D02*
X569Y351D01*
X589Y351D02*
X595Y351D01*
X662Y351D02*
X669Y351D01*
X1Y350D02*
X8Y350D01*
X291Y350D02*
X300Y350D01*
X339Y350D02*
X345Y350D01*
X363Y350D02*
X370Y350D01*
X403Y350D02*
X409Y350D01*
X417Y350D02*
X423Y350D01*
X491Y350D02*
X500Y350D01*
X539Y350D02*
X545Y350D01*
X563Y350D02*
X570Y350D01*
X589Y350D02*
X595Y350D01*
X662Y350D02*
X669Y350D01*
X1Y349D02*
X8Y349D01*
X292Y349D02*
X302Y349D01*
X339Y349D02*
X345Y349D01*
X363Y349D02*
X370Y349D01*
X403Y349D02*
X409Y349D01*
X417Y349D02*
X423Y349D01*
X492Y349D02*
X502Y349D01*
X539Y349D02*
X545Y349D01*
X563Y349D02*
X570Y349D01*
X589Y349D02*
X595Y349D01*
X662Y349D02*
X669Y349D01*
X1Y348D02*
X8Y348D01*
X293Y348D02*
X303Y348D01*
X339Y348D02*
X345Y348D01*
X364Y348D02*
X371Y348D01*
X403Y348D02*
X409Y348D01*
X417Y348D02*
X423Y348D01*
X493Y348D02*
X503Y348D01*
X539Y348D02*
X545Y348D01*
X564Y348D02*
X571Y348D01*
X589Y348D02*
X595Y348D01*
X662Y348D02*
X669Y348D01*
X1Y347D02*
X8Y347D01*
X294Y347D02*
X321Y347D01*
X339Y347D02*
X345Y347D01*
X364Y347D02*
X372Y347D01*
X391Y347D02*
X423Y347D01*
X494Y347D02*
X521Y347D01*
X539Y347D02*
X545Y347D01*
X564Y347D02*
X571Y347D01*
X589Y347D02*
X621Y347D01*
X662Y347D02*
X669Y347D01*
X1Y346D02*
X8Y346D01*
X295Y346D02*
X322Y346D01*
X339Y346D02*
X345Y346D01*
X365Y346D02*
X372Y346D01*
X390Y346D02*
X423Y346D01*
X495Y346D02*
X522Y346D01*
X539Y346D02*
X545Y346D01*
X565Y346D02*
X572Y346D01*
X589Y346D02*
X622Y346D01*
X662Y346D02*
X669Y346D01*
X1Y345D02*
X8Y345D01*
X296Y345D02*
X323Y345D01*
X339Y345D02*
X345Y345D01*
X366Y345D02*
X372Y345D01*
X389Y345D02*
X423Y345D01*
X496Y345D02*
X522Y345D01*
X539Y345D02*
X545Y345D01*
X565Y345D02*
X572Y345D01*
X589Y345D02*
X622Y345D01*
X662Y345D02*
X669Y345D01*
X1Y344D02*
X8Y344D01*
X298Y344D02*
X323Y344D01*
X339Y344D02*
X345Y344D01*
X366Y344D02*
X373Y344D01*
X389Y344D02*
X423Y344D01*
X498Y344D02*
X523Y344D01*
X539Y344D02*
X545Y344D01*
X566Y344D02*
X573Y344D01*
X589Y344D02*
X622Y344D01*
X662Y344D02*
X669Y344D01*
X1Y343D02*
X8Y343D01*
X299Y343D02*
X322Y343D01*
X339Y343D02*
X345Y343D01*
X367Y343D02*
X372Y343D01*
X389Y343D02*
X422Y343D01*
X499Y343D02*
X522Y343D01*
X539Y343D02*
X545Y343D01*
X567Y343D02*
X572Y343D01*
X589Y343D02*
X622Y343D01*
X662Y343D02*
X669Y343D01*
X1Y342D02*
X8Y342D01*
X300Y342D02*
X322Y342D01*
X340Y342D02*
X344Y342D01*
X367Y342D02*
X372Y342D01*
X390Y342D02*
X422Y342D01*
X500Y342D02*
X522Y342D01*
X540Y342D02*
X544Y342D01*
X567Y342D02*
X572Y342D01*
X589Y342D02*
X622Y342D01*
X662Y342D02*
X669Y342D01*
X1Y341D02*
X8Y341D01*
X303Y341D02*
X321Y341D01*
X341Y341D02*
X343Y341D01*
X369Y341D02*
X371Y341D01*
X391Y341D02*
X421Y341D01*
X503Y341D02*
X521Y341D01*
X541Y341D02*
X543Y341D01*
X568Y341D02*
X571Y341D01*
X589Y341D02*
X621Y341D01*
X662Y341D02*
X669Y341D01*
X1Y340D02*
X8Y340D01*
X662Y340D02*
X669Y340D01*
X1Y339D02*
X8Y339D01*
X662Y339D02*
X669Y339D01*
X1Y338D02*
X8Y338D01*
X662Y338D02*
X669Y338D01*
X1Y337D02*
X8Y337D01*
X160Y337D02*
X161Y337D01*
X662Y337D02*
X669Y337D01*
X1Y336D02*
X8Y336D01*
X150Y336D02*
X170Y336D01*
X662Y336D02*
X669Y336D01*
X1Y335D02*
X8Y335D01*
X145Y335D02*
X175Y335D01*
X662Y335D02*
X669Y335D01*
X1Y334D02*
X8Y334D01*
X142Y334D02*
X178Y334D01*
X662Y334D02*
X669Y334D01*
X1Y333D02*
X8Y333D01*
X139Y333D02*
X181Y333D01*
X662Y333D02*
X669Y333D01*
X1Y332D02*
X8Y332D01*
X136Y332D02*
X184Y332D01*
X662Y332D02*
X669Y332D01*
X1Y331D02*
X8Y331D01*
X134Y331D02*
X186Y331D01*
X662Y331D02*
X669Y331D01*
X1Y330D02*
X8Y330D01*
X132Y330D02*
X188Y330D01*
X662Y330D02*
X669Y330D01*
X1Y329D02*
X8Y329D01*
X130Y329D02*
X190Y329D01*
X662Y329D02*
X669Y329D01*
X1Y328D02*
X8Y328D01*
X129Y328D02*
X192Y328D01*
X662Y328D02*
X669Y328D01*
X1Y327D02*
X8Y327D01*
X127Y327D02*
X158Y327D01*
X162Y327D02*
X193Y327D01*
X662Y327D02*
X669Y327D01*
X1Y326D02*
X8Y326D01*
X125Y326D02*
X149Y326D01*
X171Y326D02*
X195Y326D01*
X576Y326D02*
X577Y326D01*
X662Y326D02*
X669Y326D01*
X1Y325D02*
X8Y325D01*
X124Y325D02*
X145Y325D01*
X175Y325D02*
X196Y325D01*
X575Y325D02*
X578Y325D01*
X662Y325D02*
X669Y325D01*
X1Y324D02*
X8Y324D01*
X123Y324D02*
X142Y324D01*
X178Y324D02*
X197Y324D01*
X574Y324D02*
X579Y324D01*
X662Y324D02*
X669Y324D01*
X1Y323D02*
X8Y323D01*
X121Y323D02*
X139Y323D01*
X181Y323D02*
X199Y323D01*
X574Y323D02*
X580Y323D01*
X662Y323D02*
X669Y323D01*
X1Y322D02*
X8Y322D01*
X120Y322D02*
X137Y322D01*
X183Y322D02*
X200Y322D01*
X575Y322D02*
X581Y322D01*
X662Y322D02*
X669Y322D01*
X1Y321D02*
X8Y321D01*
X119Y321D02*
X135Y321D01*
X185Y321D02*
X201Y321D01*
X576Y321D02*
X582Y321D01*
X662Y321D02*
X669Y321D01*
X1Y320D02*
X8Y320D01*
X118Y320D02*
X133Y320D01*
X187Y320D02*
X202Y320D01*
X577Y320D02*
X583Y320D01*
X662Y320D02*
X669Y320D01*
X1Y319D02*
X8Y319D01*
X117Y319D02*
X132Y319D01*
X188Y319D02*
X203Y319D01*
X578Y319D02*
X584Y319D01*
X662Y319D02*
X669Y319D01*
X1Y318D02*
X8Y318D01*
X116Y318D02*
X130Y318D01*
X190Y318D02*
X204Y318D01*
X579Y318D02*
X585Y318D01*
X662Y318D02*
X669Y318D01*
X1Y317D02*
X8Y317D01*
X115Y317D02*
X129Y317D01*
X191Y317D02*
X205Y317D01*
X580Y317D02*
X586Y317D01*
X662Y317D02*
X669Y317D01*
X1Y316D02*
X8Y316D01*
X114Y316D02*
X128Y316D01*
X193Y316D02*
X206Y316D01*
X581Y316D02*
X587Y316D01*
X662Y316D02*
X669Y316D01*
X1Y315D02*
X8Y315D01*
X113Y315D02*
X126Y315D01*
X194Y315D02*
X207Y315D01*
X582Y315D02*
X588Y315D01*
X662Y315D02*
X669Y315D01*
X1Y314D02*
X8Y314D01*
X112Y314D02*
X125Y314D01*
X195Y314D02*
X208Y314D01*
X583Y314D02*
X589Y314D01*
X662Y314D02*
X669Y314D01*
X1Y313D02*
X8Y313D01*
X112Y313D02*
X124Y313D01*
X196Y313D02*
X208Y313D01*
X584Y313D02*
X590Y313D01*
X662Y313D02*
X669Y313D01*
X1Y312D02*
X8Y312D01*
X111Y312D02*
X123Y312D01*
X197Y312D02*
X209Y312D01*
X585Y312D02*
X591Y312D01*
X662Y312D02*
X669Y312D01*
X1Y311D02*
X8Y311D01*
X110Y311D02*
X122Y311D01*
X198Y311D02*
X210Y311D01*
X586Y311D02*
X592Y311D01*
X662Y311D02*
X669Y311D01*
X1Y310D02*
X8Y310D01*
X109Y310D02*
X121Y310D01*
X199Y310D02*
X211Y310D01*
X587Y310D02*
X593Y310D01*
X662Y310D02*
X669Y310D01*
X1Y309D02*
X8Y309D01*
X109Y309D02*
X120Y309D01*
X200Y309D02*
X211Y309D01*
X588Y309D02*
X594Y309D01*
X662Y309D02*
X669Y309D01*
X1Y308D02*
X8Y308D01*
X108Y308D02*
X119Y308D01*
X201Y308D02*
X212Y308D01*
X589Y308D02*
X595Y308D01*
X662Y308D02*
X669Y308D01*
X1Y307D02*
X8Y307D01*
X108Y307D02*
X119Y307D01*
X202Y307D02*
X213Y307D01*
X591Y307D02*
X596Y307D01*
X662Y307D02*
X669Y307D01*
X1Y306D02*
X8Y306D01*
X107Y306D02*
X118Y306D01*
X202Y306D02*
X213Y306D01*
X592Y306D02*
X597Y306D01*
X662Y306D02*
X669Y306D01*
X1Y305D02*
X8Y305D01*
X106Y305D02*
X117Y305D01*
X203Y305D02*
X214Y305D01*
X593Y305D02*
X598Y305D01*
X662Y305D02*
X669Y305D01*
X1Y304D02*
X8Y304D01*
X106Y304D02*
X116Y304D01*
X204Y304D02*
X214Y304D01*
X593Y304D02*
X599Y304D01*
X662Y304D02*
X669Y304D01*
X1Y303D02*
X8Y303D01*
X105Y303D02*
X116Y303D01*
X204Y303D02*
X215Y303D01*
X594Y303D02*
X600Y303D01*
X662Y303D02*
X669Y303D01*
X1Y302D02*
X8Y302D01*
X105Y302D02*
X115Y302D01*
X205Y302D02*
X215Y302D01*
X595Y302D02*
X601Y302D01*
X662Y302D02*
X669Y302D01*
X1Y301D02*
X8Y301D01*
X104Y301D02*
X114Y301D01*
X206Y301D02*
X216Y301D01*
X596Y301D02*
X602Y301D01*
X662Y301D02*
X669Y301D01*
X1Y300D02*
X8Y300D01*
X104Y300D02*
X114Y300D01*
X206Y300D02*
X216Y300D01*
X597Y300D02*
X603Y300D01*
X662Y300D02*
X669Y300D01*
X1Y299D02*
X8Y299D01*
X103Y299D02*
X113Y299D01*
X207Y299D02*
X217Y299D01*
X598Y299D02*
X604Y299D01*
X662Y299D02*
X669Y299D01*
X1Y298D02*
X8Y298D01*
X103Y298D02*
X113Y298D01*
X207Y298D02*
X217Y298D01*
X599Y298D02*
X605Y298D01*
X662Y298D02*
X669Y298D01*
X1Y297D02*
X8Y297D01*
X103Y297D02*
X112Y297D01*
X208Y297D02*
X217Y297D01*
X600Y297D02*
X606Y297D01*
X662Y297D02*
X669Y297D01*
X1Y296D02*
X8Y296D01*
X102Y296D02*
X112Y296D01*
X208Y296D02*
X218Y296D01*
X601Y296D02*
X607Y296D01*
X662Y296D02*
X669Y296D01*
X1Y295D02*
X8Y295D01*
X102Y295D02*
X111Y295D01*
X209Y295D02*
X218Y295D01*
X602Y295D02*
X608Y295D01*
X662Y295D02*
X669Y295D01*
X1Y294D02*
X8Y294D01*
X102Y294D02*
X111Y294D01*
X209Y294D02*
X218Y294D01*
X603Y294D02*
X609Y294D01*
X662Y294D02*
X669Y294D01*
X1Y293D02*
X8Y293D01*
X101Y293D02*
X111Y293D01*
X209Y293D02*
X219Y293D01*
X604Y293D02*
X610Y293D01*
X662Y293D02*
X669Y293D01*
X1Y292D02*
X8Y292D01*
X101Y292D02*
X110Y292D01*
X210Y292D02*
X219Y292D01*
X605Y292D02*
X611Y292D01*
X662Y292D02*
X669Y292D01*
X1Y291D02*
X8Y291D01*
X101Y291D02*
X110Y291D01*
X210Y291D02*
X219Y291D01*
X606Y291D02*
X610Y291D01*
X662Y291D02*
X669Y291D01*
X1Y290D02*
X8Y290D01*
X101Y290D02*
X110Y290D01*
X200Y290D02*
X220Y290D01*
X607Y290D02*
X609Y290D01*
X662Y290D02*
X669Y290D01*
X1Y289D02*
X8Y289D01*
X100Y289D02*
X109Y289D01*
X201Y289D02*
X219Y289D01*
X608Y289D02*
X608Y289D01*
X662Y289D02*
X669Y289D01*
X1Y288D02*
X8Y288D01*
X100Y288D02*
X109Y288D01*
X201Y288D02*
X219Y288D01*
X662Y288D02*
X669Y288D01*
X1Y287D02*
X8Y287D01*
X100Y287D02*
X109Y287D01*
X201Y287D02*
X219Y287D01*
X662Y287D02*
X669Y287D01*
X1Y286D02*
X8Y286D01*
X100Y286D02*
X109Y286D01*
X202Y286D02*
X219Y286D01*
X662Y286D02*
X669Y286D01*
X1Y285D02*
X8Y285D01*
X99Y285D02*
X109Y285D01*
X202Y285D02*
X218Y285D01*
X662Y285D02*
X669Y285D01*
X1Y284D02*
X8Y284D01*
X99Y284D02*
X108Y284D01*
X202Y284D02*
X218Y284D01*
X662Y284D02*
X669Y284D01*
X1Y283D02*
X8Y283D01*
X99Y283D02*
X108Y283D01*
X202Y283D02*
X218Y283D01*
X662Y283D02*
X669Y283D01*
X1Y282D02*
X8Y282D01*
X99Y282D02*
X108Y282D01*
X202Y282D02*
X218Y282D01*
X662Y282D02*
X669Y282D01*
X1Y281D02*
X8Y281D01*
X99Y281D02*
X108Y281D01*
X203Y281D02*
X218Y281D01*
X662Y281D02*
X669Y281D01*
X1Y280D02*
X8Y280D01*
X99Y280D02*
X108Y280D01*
X203Y280D02*
X217Y280D01*
X662Y280D02*
X669Y280D01*
X1Y279D02*
X8Y279D01*
X99Y279D02*
X108Y279D01*
X203Y279D02*
X217Y279D01*
X662Y279D02*
X669Y279D01*
X1Y278D02*
X8Y278D01*
X99Y278D02*
X108Y278D01*
X203Y278D02*
X217Y278D01*
X662Y278D02*
X669Y278D01*
X1Y277D02*
X8Y277D01*
X99Y277D02*
X108Y277D01*
X203Y277D02*
X217Y277D01*
X662Y277D02*
X669Y277D01*
X1Y276D02*
X8Y276D01*
X99Y276D02*
X108Y276D01*
X203Y276D02*
X217Y276D01*
X662Y276D02*
X669Y276D01*
X1Y275D02*
X8Y275D01*
X99Y275D02*
X108Y275D01*
X203Y275D02*
X217Y275D01*
X662Y275D02*
X669Y275D01*
X1Y274D02*
X8Y274D01*
X99Y274D02*
X108Y274D01*
X203Y274D02*
X217Y274D01*
X662Y274D02*
X669Y274D01*
X1Y273D02*
X8Y273D01*
X99Y273D02*
X108Y273D01*
X203Y273D02*
X217Y273D01*
X662Y273D02*
X669Y273D01*
X1Y272D02*
X8Y272D01*
X99Y272D02*
X108Y272D01*
X203Y272D02*
X217Y272D01*
X662Y272D02*
X669Y272D01*
X1Y271D02*
X8Y271D01*
X99Y271D02*
X108Y271D01*
X203Y271D02*
X217Y271D01*
X662Y271D02*
X669Y271D01*
X1Y270D02*
X8Y270D01*
X99Y270D02*
X108Y270D01*
X203Y270D02*
X217Y270D01*
X662Y270D02*
X669Y270D01*
X1Y269D02*
X8Y269D01*
X99Y269D02*
X108Y269D01*
X202Y269D02*
X218Y269D01*
X662Y269D02*
X669Y269D01*
X1Y268D02*
X8Y268D01*
X99Y268D02*
X108Y268D01*
X202Y268D02*
X218Y268D01*
X662Y268D02*
X669Y268D01*
X1Y267D02*
X8Y267D01*
X99Y267D02*
X108Y267D01*
X202Y267D02*
X218Y267D01*
X662Y267D02*
X669Y267D01*
X1Y266D02*
X8Y266D01*
X99Y266D02*
X108Y266D01*
X202Y266D02*
X218Y266D01*
X662Y266D02*
X669Y266D01*
X1Y265D02*
X8Y265D01*
X100Y265D02*
X109Y265D01*
X202Y265D02*
X218Y265D01*
X662Y265D02*
X669Y265D01*
X1Y264D02*
X8Y264D01*
X100Y264D02*
X109Y264D01*
X201Y264D02*
X219Y264D01*
X662Y264D02*
X669Y264D01*
X1Y263D02*
X8Y263D01*
X100Y263D02*
X109Y263D01*
X201Y263D02*
X219Y263D01*
X662Y263D02*
X669Y263D01*
X1Y262D02*
X8Y262D01*
X100Y262D02*
X109Y262D01*
X201Y262D02*
X219Y262D01*
X662Y262D02*
X669Y262D01*
X1Y261D02*
X8Y261D01*
X100Y261D02*
X110Y261D01*
X201Y261D02*
X220Y261D01*
X662Y261D02*
X669Y261D01*
X1Y260D02*
X8Y260D01*
X101Y260D02*
X110Y260D01*
X210Y260D02*
X220Y260D01*
X662Y260D02*
X669Y260D01*
X1Y259D02*
X8Y259D01*
X101Y259D02*
X110Y259D01*
X210Y259D02*
X219Y259D01*
X662Y259D02*
X669Y259D01*
X1Y258D02*
X8Y258D01*
X101Y258D02*
X110Y258D01*
X210Y258D02*
X219Y258D01*
X662Y258D02*
X669Y258D01*
X1Y257D02*
X8Y257D01*
X101Y257D02*
X111Y257D01*
X209Y257D02*
X219Y257D01*
X662Y257D02*
X669Y257D01*
X1Y256D02*
X8Y256D01*
X102Y256D02*
X111Y256D01*
X209Y256D02*
X218Y256D01*
X662Y256D02*
X669Y256D01*
X1Y255D02*
X8Y255D01*
X102Y255D02*
X112Y255D01*
X209Y255D02*
X218Y255D01*
X662Y255D02*
X669Y255D01*
X1Y254D02*
X8Y254D01*
X102Y254D02*
X112Y254D01*
X208Y254D02*
X218Y254D01*
X662Y254D02*
X669Y254D01*
X1Y253D02*
X8Y253D01*
X103Y253D02*
X112Y253D01*
X208Y253D02*
X217Y253D01*
X662Y253D02*
X669Y253D01*
X1Y252D02*
X8Y252D01*
X103Y252D02*
X113Y252D01*
X207Y252D02*
X217Y252D01*
X662Y252D02*
X669Y252D01*
X1Y251D02*
X8Y251D01*
X104Y251D02*
X113Y251D01*
X207Y251D02*
X217Y251D01*
X662Y251D02*
X669Y251D01*
X1Y250D02*
X8Y250D01*
X104Y250D02*
X114Y250D01*
X206Y250D02*
X216Y250D01*
X662Y250D02*
X669Y250D01*
X1Y249D02*
X8Y249D01*
X105Y249D02*
X115Y249D01*
X206Y249D02*
X216Y249D01*
X662Y249D02*
X669Y249D01*
X1Y248D02*
X8Y248D01*
X105Y248D02*
X115Y248D01*
X205Y248D02*
X215Y248D01*
X662Y248D02*
X669Y248D01*
X1Y247D02*
X8Y247D01*
X105Y247D02*
X116Y247D01*
X204Y247D02*
X215Y247D01*
X662Y247D02*
X669Y247D01*
X1Y246D02*
X8Y246D01*
X106Y246D02*
X116Y246D01*
X204Y246D02*
X214Y246D01*
X662Y246D02*
X669Y246D01*
X1Y245D02*
X8Y245D01*
X107Y245D02*
X117Y245D01*
X203Y245D02*
X214Y245D01*
X662Y245D02*
X669Y245D01*
X1Y244D02*
X8Y244D01*
X107Y244D02*
X118Y244D01*
X202Y244D02*
X213Y244D01*
X662Y244D02*
X669Y244D01*
X1Y243D02*
X8Y243D01*
X108Y243D02*
X119Y243D01*
X201Y243D02*
X212Y243D01*
X662Y243D02*
X669Y243D01*
X1Y242D02*
X8Y242D01*
X108Y242D02*
X120Y242D01*
X201Y242D02*
X212Y242D01*
X662Y242D02*
X669Y242D01*
X1Y241D02*
X8Y241D01*
X109Y241D02*
X120Y241D01*
X200Y241D02*
X211Y241D01*
X662Y241D02*
X669Y241D01*
X1Y240D02*
X8Y240D01*
X110Y240D02*
X121Y240D01*
X199Y240D02*
X211Y240D01*
X662Y240D02*
X669Y240D01*
X1Y239D02*
X8Y239D01*
X34Y239D02*
X60Y239D01*
X85Y239D02*
X103Y239D01*
X110Y239D02*
X122Y239D01*
X198Y239D02*
X210Y239D01*
X662Y239D02*
X669Y239D01*
X1Y238D02*
X8Y238D01*
X34Y238D02*
X62Y238D01*
X84Y238D02*
X103Y238D01*
X111Y238D02*
X123Y238D01*
X197Y238D02*
X209Y238D01*
X662Y238D02*
X669Y238D01*
X1Y237D02*
X8Y237D01*
X34Y237D02*
X63Y237D01*
X84Y237D02*
X103Y237D01*
X112Y237D02*
X124Y237D01*
X196Y237D02*
X208Y237D01*
X662Y237D02*
X669Y237D01*
X1Y236D02*
X8Y236D01*
X34Y236D02*
X64Y236D01*
X84Y236D02*
X103Y236D01*
X113Y236D02*
X125Y236D01*
X195Y236D02*
X208Y236D01*
X662Y236D02*
X669Y236D01*
X1Y235D02*
X8Y235D01*
X34Y235D02*
X65Y235D01*
X84Y235D02*
X103Y235D01*
X113Y235D02*
X127Y235D01*
X194Y235D02*
X207Y235D01*
X662Y235D02*
X669Y235D01*
X1Y234D02*
X8Y234D01*
X34Y234D02*
X66Y234D01*
X84Y234D02*
X103Y234D01*
X114Y234D02*
X128Y234D01*
X192Y234D02*
X206Y234D01*
X662Y234D02*
X669Y234D01*
X1Y233D02*
X8Y233D01*
X34Y233D02*
X66Y233D01*
X85Y233D02*
X103Y233D01*
X115Y233D02*
X129Y233D01*
X191Y233D02*
X205Y233D01*
X662Y233D02*
X669Y233D01*
X1Y232D02*
X8Y232D01*
X34Y232D02*
X40Y232D01*
X59Y232D02*
X67Y232D01*
X97Y232D02*
X103Y232D01*
X116Y232D02*
X130Y232D01*
X190Y232D02*
X204Y232D01*
X662Y232D02*
X669Y232D01*
X1Y231D02*
X8Y231D01*
X34Y231D02*
X40Y231D01*
X60Y231D02*
X67Y231D01*
X97Y231D02*
X103Y231D01*
X117Y231D02*
X132Y231D01*
X188Y231D02*
X203Y231D01*
X662Y231D02*
X669Y231D01*
X1Y230D02*
X8Y230D01*
X34Y230D02*
X40Y230D01*
X61Y230D02*
X67Y230D01*
X97Y230D02*
X103Y230D01*
X118Y230D02*
X134Y230D01*
X186Y230D02*
X202Y230D01*
X662Y230D02*
X669Y230D01*
X1Y229D02*
X8Y229D01*
X34Y229D02*
X40Y229D01*
X61Y229D02*
X67Y229D01*
X97Y229D02*
X103Y229D01*
X119Y229D02*
X135Y229D01*
X185Y229D02*
X201Y229D01*
X662Y229D02*
X669Y229D01*
X1Y228D02*
X8Y228D01*
X34Y228D02*
X40Y228D01*
X61Y228D02*
X67Y228D01*
X97Y228D02*
X103Y228D01*
X120Y228D02*
X138Y228D01*
X183Y228D02*
X200Y228D01*
X662Y228D02*
X669Y228D01*
X1Y227D02*
X8Y227D01*
X34Y227D02*
X40Y227D01*
X61Y227D02*
X67Y227D01*
X97Y227D02*
X103Y227D01*
X122Y227D02*
X140Y227D01*
X180Y227D02*
X199Y227D01*
X662Y227D02*
X669Y227D01*
X1Y226D02*
X8Y226D01*
X34Y226D02*
X40Y226D01*
X61Y226D02*
X67Y226D01*
X97Y226D02*
X103Y226D01*
X123Y226D02*
X143Y226D01*
X178Y226D02*
X197Y226D01*
X662Y226D02*
X669Y226D01*
X1Y225D02*
X8Y225D01*
X34Y225D02*
X40Y225D01*
X61Y225D02*
X67Y225D01*
X97Y225D02*
X103Y225D01*
X124Y225D02*
X146Y225D01*
X174Y225D02*
X196Y225D01*
X662Y225D02*
X669Y225D01*
X1Y224D02*
X8Y224D01*
X34Y224D02*
X40Y224D01*
X61Y224D02*
X67Y224D01*
X97Y224D02*
X103Y224D01*
X126Y224D02*
X150Y224D01*
X170Y224D02*
X194Y224D01*
X662Y224D02*
X669Y224D01*
X1Y223D02*
X8Y223D01*
X34Y223D02*
X40Y223D01*
X60Y223D02*
X67Y223D01*
X97Y223D02*
X103Y223D01*
X127Y223D02*
X193Y223D01*
X662Y223D02*
X669Y223D01*
X1Y222D02*
X8Y222D01*
X34Y222D02*
X40Y222D01*
X58Y222D02*
X66Y222D01*
X97Y222D02*
X103Y222D01*
X129Y222D02*
X191Y222D01*
X662Y222D02*
X669Y222D01*
X1Y221D02*
X8Y221D01*
X34Y221D02*
X66Y221D01*
X97Y221D02*
X103Y221D01*
X131Y221D02*
X190Y221D01*
X662Y221D02*
X669Y221D01*
X1Y220D02*
X8Y220D01*
X34Y220D02*
X66Y220D01*
X97Y220D02*
X103Y220D01*
X133Y220D02*
X188Y220D01*
X662Y220D02*
X669Y220D01*
X1Y219D02*
X8Y219D01*
X34Y219D02*
X65Y219D01*
X97Y219D02*
X103Y219D01*
X135Y219D02*
X185Y219D01*
X662Y219D02*
X669Y219D01*
X1Y218D02*
X8Y218D01*
X34Y218D02*
X64Y218D01*
X97Y218D02*
X103Y218D01*
X137Y218D02*
X183Y218D01*
X662Y218D02*
X669Y218D01*
X1Y217D02*
X8Y217D01*
X34Y217D02*
X63Y217D01*
X97Y217D02*
X103Y217D01*
X140Y217D02*
X153Y217D01*
X167Y217D02*
X181Y217D01*
X662Y217D02*
X669Y217D01*
X1Y216D02*
X8Y216D01*
X34Y216D02*
X61Y216D01*
X97Y216D02*
X103Y216D01*
X142Y216D02*
X148Y216D01*
X172Y216D02*
X178Y216D01*
X662Y216D02*
X669Y216D01*
X1Y215D02*
X8Y215D01*
X34Y215D02*
X58Y215D01*
X97Y215D02*
X103Y215D01*
X662Y215D02*
X669Y215D01*
X1Y214D02*
X8Y214D01*
X34Y214D02*
X40Y214D01*
X46Y214D02*
X53Y214D01*
X97Y214D02*
X103Y214D01*
X662Y214D02*
X669Y214D01*
X1Y213D02*
X8Y213D01*
X34Y213D02*
X40Y213D01*
X46Y213D02*
X54Y213D01*
X97Y213D02*
X103Y213D01*
X662Y213D02*
X669Y213D01*
X1Y212D02*
X8Y212D01*
X34Y212D02*
X40Y212D01*
X47Y212D02*
X54Y212D01*
X97Y212D02*
X103Y212D01*
X662Y212D02*
X669Y212D01*
X1Y211D02*
X8Y211D01*
X34Y211D02*
X40Y211D01*
X48Y211D02*
X55Y211D01*
X97Y211D02*
X103Y211D01*
X662Y211D02*
X669Y211D01*
X1Y210D02*
X8Y210D01*
X34Y210D02*
X40Y210D01*
X48Y210D02*
X55Y210D01*
X97Y210D02*
X103Y210D01*
X114Y210D02*
X114Y210D01*
X662Y210D02*
X669Y210D01*
X1Y209D02*
X8Y209D01*
X34Y209D02*
X40Y209D01*
X49Y209D02*
X56Y209D01*
X97Y209D02*
X103Y209D01*
X112Y209D02*
X116Y209D01*
X662Y209D02*
X669Y209D01*
X1Y208D02*
X8Y208D01*
X34Y208D02*
X40Y208D01*
X49Y208D02*
X57Y208D01*
X97Y208D02*
X103Y208D01*
X111Y208D02*
X117Y208D01*
X662Y208D02*
X669Y208D01*
X1Y207D02*
X8Y207D01*
X34Y207D02*
X40Y207D01*
X50Y207D02*
X57Y207D01*
X97Y207D02*
X103Y207D01*
X111Y207D02*
X117Y207D01*
X662Y207D02*
X669Y207D01*
X1Y206D02*
X8Y206D01*
X34Y206D02*
X40Y206D01*
X50Y206D02*
X58Y206D01*
X97Y206D02*
X103Y206D01*
X111Y206D02*
X117Y206D01*
X662Y206D02*
X669Y206D01*
X1Y205D02*
X8Y205D01*
X34Y205D02*
X40Y205D01*
X51Y205D02*
X58Y205D01*
X97Y205D02*
X103Y205D01*
X111Y205D02*
X117Y205D01*
X662Y205D02*
X669Y205D01*
X1Y204D02*
X8Y204D01*
X34Y204D02*
X40Y204D01*
X52Y204D02*
X59Y204D01*
X97Y204D02*
X103Y204D01*
X111Y204D02*
X117Y204D01*
X662Y204D02*
X669Y204D01*
X1Y203D02*
X8Y203D01*
X34Y203D02*
X40Y203D01*
X52Y203D02*
X59Y203D01*
X97Y203D02*
X103Y203D01*
X111Y203D02*
X117Y203D01*
X662Y203D02*
X669Y203D01*
X1Y202D02*
X8Y202D01*
X34Y202D02*
X40Y202D01*
X53Y202D02*
X60Y202D01*
X97Y202D02*
X103Y202D01*
X111Y202D02*
X117Y202D01*
X662Y202D02*
X669Y202D01*
X1Y201D02*
X8Y201D01*
X34Y201D02*
X40Y201D01*
X53Y201D02*
X61Y201D01*
X97Y201D02*
X103Y201D01*
X111Y201D02*
X117Y201D01*
X662Y201D02*
X669Y201D01*
X1Y200D02*
X8Y200D01*
X34Y200D02*
X40Y200D01*
X54Y200D02*
X61Y200D01*
X97Y200D02*
X103Y200D01*
X111Y200D02*
X117Y200D01*
X662Y200D02*
X669Y200D01*
X1Y199D02*
X8Y199D01*
X34Y199D02*
X40Y199D01*
X55Y199D02*
X62Y199D01*
X97Y199D02*
X103Y199D01*
X111Y199D02*
X117Y199D01*
X662Y199D02*
X669Y199D01*
X1Y198D02*
X8Y198D01*
X34Y198D02*
X40Y198D01*
X55Y198D02*
X62Y198D01*
X97Y198D02*
X103Y198D01*
X111Y198D02*
X117Y198D01*
X333Y198D02*
X360Y198D01*
X385Y198D02*
X412Y198D01*
X662Y198D02*
X669Y198D01*
X1Y197D02*
X8Y197D01*
X34Y197D02*
X40Y197D01*
X56Y197D02*
X63Y197D01*
X97Y197D02*
X103Y197D01*
X111Y197D02*
X117Y197D01*
X333Y197D02*
X362Y197D01*
X384Y197D02*
X414Y197D01*
X662Y197D02*
X669Y197D01*
X1Y196D02*
X8Y196D01*
X34Y196D02*
X40Y196D01*
X56Y196D02*
X64Y196D01*
X97Y196D02*
X103Y196D01*
X111Y196D02*
X117Y196D01*
X333Y196D02*
X363Y196D01*
X383Y196D02*
X415Y196D01*
X662Y196D02*
X669Y196D01*
X1Y195D02*
X8Y195D01*
X34Y195D02*
X40Y195D01*
X57Y195D02*
X64Y195D01*
X97Y195D02*
X103Y195D01*
X111Y195D02*
X117Y195D01*
X333Y195D02*
X364Y195D01*
X383Y195D02*
X416Y195D01*
X662Y195D02*
X669Y195D01*
X1Y194D02*
X8Y194D01*
X34Y194D02*
X40Y194D01*
X57Y194D02*
X65Y194D01*
X97Y194D02*
X103Y194D01*
X111Y194D02*
X117Y194D01*
X333Y194D02*
X365Y194D01*
X383Y194D02*
X416Y194D01*
X662Y194D02*
X669Y194D01*
X1Y193D02*
X8Y193D01*
X34Y193D02*
X40Y193D01*
X58Y193D02*
X65Y193D01*
X97Y193D02*
X103Y193D01*
X111Y193D02*
X117Y193D01*
X333Y193D02*
X365Y193D01*
X384Y193D02*
X417Y193D01*
X662Y193D02*
X669Y193D01*
X1Y192D02*
X8Y192D01*
X34Y192D02*
X40Y192D01*
X59Y192D02*
X66Y192D01*
X85Y192D02*
X117Y192D01*
X333Y192D02*
X366Y192D01*
X385Y192D02*
X417Y192D01*
X662Y192D02*
X669Y192D01*
X1Y191D02*
X8Y191D01*
X34Y191D02*
X40Y191D01*
X59Y191D02*
X66Y191D01*
X84Y191D02*
X117Y191D01*
X333Y191D02*
X339Y191D01*
X359Y191D02*
X366Y191D01*
X411Y191D02*
X417Y191D01*
X662Y191D02*
X669Y191D01*
X1Y190D02*
X8Y190D01*
X34Y190D02*
X40Y190D01*
X60Y190D02*
X67Y190D01*
X84Y190D02*
X117Y190D01*
X333Y190D02*
X339Y190D01*
X360Y190D02*
X367Y190D01*
X411Y190D02*
X417Y190D01*
X662Y190D02*
X669Y190D01*
X1Y189D02*
X8Y189D01*
X34Y189D02*
X39Y189D01*
X60Y189D02*
X67Y189D01*
X84Y189D02*
X117Y189D01*
X333Y189D02*
X339Y189D01*
X360Y189D02*
X367Y189D01*
X411Y189D02*
X417Y189D01*
X662Y189D02*
X669Y189D01*
X1Y188D02*
X8Y188D01*
X34Y188D02*
X39Y188D01*
X61Y188D02*
X67Y188D01*
X84Y188D02*
X117Y188D01*
X333Y188D02*
X339Y188D01*
X361Y188D02*
X367Y188D01*
X411Y188D02*
X417Y188D01*
X662Y188D02*
X669Y188D01*
X1Y187D02*
X8Y187D01*
X34Y187D02*
X39Y187D01*
X62Y187D02*
X66Y187D01*
X84Y187D02*
X116Y187D01*
X333Y187D02*
X339Y187D01*
X361Y187D02*
X367Y187D01*
X411Y187D02*
X417Y187D01*
X662Y187D02*
X669Y187D01*
X1Y186D02*
X8Y186D01*
X35Y186D02*
X38Y186D01*
X63Y186D02*
X65Y186D01*
X85Y186D02*
X115Y186D01*
X333Y186D02*
X339Y186D01*
X361Y186D02*
X367Y186D01*
X411Y186D02*
X417Y186D01*
X662Y186D02*
X669Y186D01*
X1Y185D02*
X8Y185D01*
X333Y185D02*
X339Y185D01*
X361Y185D02*
X367Y185D01*
X411Y185D02*
X417Y185D01*
X662Y185D02*
X669Y185D01*
X1Y184D02*
X8Y184D01*
X333Y184D02*
X339Y184D01*
X361Y184D02*
X367Y184D01*
X411Y184D02*
X417Y184D01*
X662Y184D02*
X669Y184D01*
X1Y183D02*
X8Y183D01*
X333Y183D02*
X339Y183D01*
X360Y183D02*
X367Y183D01*
X411Y183D02*
X417Y183D01*
X662Y183D02*
X669Y183D01*
X1Y182D02*
X8Y182D01*
X333Y182D02*
X339Y182D01*
X360Y182D02*
X366Y182D01*
X411Y182D02*
X417Y182D01*
X662Y182D02*
X669Y182D01*
X1Y181D02*
X8Y181D01*
X333Y181D02*
X339Y181D01*
X358Y181D02*
X366Y181D01*
X411Y181D02*
X417Y181D01*
X662Y181D02*
X669Y181D01*
X1Y180D02*
X8Y180D01*
X203Y180D02*
X269Y180D01*
X333Y180D02*
X366Y180D01*
X411Y180D02*
X417Y180D01*
X470Y180D02*
X517Y180D01*
X662Y180D02*
X669Y180D01*
X1Y179D02*
X8Y179D01*
X203Y179D02*
X269Y179D01*
X333Y179D02*
X365Y179D01*
X411Y179D02*
X417Y179D01*
X470Y179D02*
X517Y179D01*
X662Y179D02*
X669Y179D01*
X1Y178D02*
X8Y178D01*
X203Y178D02*
X269Y178D01*
X333Y178D02*
X364Y178D01*
X411Y178D02*
X417Y178D01*
X470Y178D02*
X517Y178D01*
X662Y178D02*
X669Y178D01*
X1Y177D02*
X8Y177D01*
X203Y177D02*
X269Y177D01*
X333Y177D02*
X363Y177D01*
X411Y177D02*
X417Y177D01*
X470Y177D02*
X517Y177D01*
X662Y177D02*
X669Y177D01*
X1Y176D02*
X8Y176D01*
X203Y176D02*
X269Y176D01*
X333Y176D02*
X362Y176D01*
X411Y176D02*
X417Y176D01*
X470Y176D02*
X517Y176D01*
X662Y176D02*
X669Y176D01*
X1Y175D02*
X8Y175D01*
X203Y175D02*
X269Y175D01*
X333Y175D02*
X361Y175D01*
X390Y175D02*
X417Y175D01*
X470Y175D02*
X517Y175D01*
X662Y175D02*
X669Y175D01*
X1Y174D02*
X8Y174D01*
X203Y174D02*
X269Y174D01*
X333Y174D02*
X357Y174D01*
X387Y174D02*
X417Y174D01*
X470Y174D02*
X517Y174D01*
X662Y174D02*
X669Y174D01*
X1Y173D02*
X8Y173D01*
X203Y173D02*
X269Y173D01*
X333Y173D02*
X339Y173D01*
X345Y173D02*
X353Y173D01*
X385Y173D02*
X416Y173D01*
X470Y173D02*
X517Y173D01*
X662Y173D02*
X669Y173D01*
X1Y172D02*
X8Y172D01*
X203Y172D02*
X269Y172D01*
X333Y172D02*
X339Y172D01*
X346Y172D02*
X353Y172D01*
X384Y172D02*
X416Y172D01*
X470Y172D02*
X517Y172D01*
X662Y172D02*
X669Y172D01*
X1Y171D02*
X8Y171D01*
X203Y171D02*
X269Y171D01*
X333Y171D02*
X339Y171D01*
X347Y171D02*
X354Y171D01*
X384Y171D02*
X415Y171D01*
X470Y171D02*
X517Y171D01*
X662Y171D02*
X669Y171D01*
X1Y170D02*
X8Y170D01*
X333Y170D02*
X339Y170D01*
X347Y170D02*
X354Y170D01*
X383Y170D02*
X414Y170D01*
X662Y170D02*
X669Y170D01*
X1Y169D02*
X8Y169D01*
X333Y169D02*
X339Y169D01*
X348Y169D02*
X355Y169D01*
X383Y169D02*
X413Y169D01*
X662Y169D02*
X669Y169D01*
X1Y168D02*
X8Y168D01*
X333Y168D02*
X339Y168D01*
X348Y168D02*
X356Y168D01*
X383Y168D02*
X390Y168D01*
X662Y168D02*
X669Y168D01*
X1Y167D02*
X8Y167D01*
X333Y167D02*
X339Y167D01*
X349Y167D02*
X356Y167D01*
X383Y167D02*
X389Y167D01*
X662Y167D02*
X669Y167D01*
X1Y166D02*
X8Y166D01*
X333Y166D02*
X339Y166D01*
X350Y166D02*
X357Y166D01*
X383Y166D02*
X389Y166D01*
X662Y166D02*
X669Y166D01*
X1Y165D02*
X8Y165D01*
X333Y165D02*
X339Y165D01*
X350Y165D02*
X357Y165D01*
X383Y165D02*
X389Y165D01*
X662Y165D02*
X669Y165D01*
X1Y164D02*
X8Y164D01*
X333Y164D02*
X339Y164D01*
X351Y164D02*
X358Y164D01*
X383Y164D02*
X389Y164D01*
X662Y164D02*
X669Y164D01*
X1Y163D02*
X8Y163D01*
X333Y163D02*
X339Y163D01*
X351Y163D02*
X358Y163D01*
X383Y163D02*
X389Y163D01*
X662Y163D02*
X669Y163D01*
X1Y162D02*
X8Y162D01*
X333Y162D02*
X339Y162D01*
X352Y162D02*
X359Y162D01*
X383Y162D02*
X389Y162D01*
X662Y162D02*
X669Y162D01*
X1Y161D02*
X8Y161D01*
X333Y161D02*
X339Y161D01*
X352Y161D02*
X360Y161D01*
X383Y161D02*
X389Y161D01*
X662Y161D02*
X669Y161D01*
X1Y160D02*
X8Y160D01*
X333Y160D02*
X339Y160D01*
X353Y160D02*
X360Y160D01*
X383Y160D02*
X389Y160D01*
X662Y160D02*
X669Y160D01*
X1Y159D02*
X8Y159D01*
X333Y159D02*
X339Y159D01*
X354Y159D02*
X361Y159D01*
X383Y159D02*
X389Y159D01*
X662Y159D02*
X669Y159D01*
X1Y158D02*
X8Y158D01*
X333Y158D02*
X339Y158D01*
X354Y158D02*
X361Y158D01*
X383Y158D02*
X389Y158D01*
X662Y158D02*
X669Y158D01*
X1Y157D02*
X8Y157D01*
X333Y157D02*
X339Y157D01*
X355Y157D02*
X362Y157D01*
X383Y157D02*
X389Y157D01*
X662Y157D02*
X669Y157D01*
X1Y156D02*
X8Y156D01*
X333Y156D02*
X339Y156D01*
X355Y156D02*
X363Y156D01*
X383Y156D02*
X389Y156D01*
X662Y156D02*
X669Y156D01*
X1Y155D02*
X8Y155D01*
X333Y155D02*
X339Y155D01*
X356Y155D02*
X363Y155D01*
X383Y155D02*
X389Y155D01*
X662Y155D02*
X669Y155D01*
X1Y154D02*
X8Y154D01*
X333Y154D02*
X339Y154D01*
X357Y154D02*
X364Y154D01*
X383Y154D02*
X389Y154D01*
X662Y154D02*
X669Y154D01*
X1Y153D02*
X8Y153D01*
X333Y153D02*
X339Y153D01*
X357Y153D02*
X364Y153D01*
X383Y153D02*
X389Y153D01*
X662Y153D02*
X669Y153D01*
X1Y152D02*
X8Y152D01*
X333Y152D02*
X339Y152D01*
X358Y152D02*
X365Y152D01*
X383Y152D02*
X389Y152D01*
X662Y152D02*
X669Y152D01*
X1Y151D02*
X8Y151D01*
X333Y151D02*
X339Y151D01*
X358Y151D02*
X365Y151D01*
X383Y151D02*
X415Y151D01*
X662Y151D02*
X669Y151D01*
X1Y150D02*
X8Y150D01*
X333Y150D02*
X339Y150D01*
X359Y150D02*
X366Y150D01*
X383Y150D02*
X416Y150D01*
X662Y150D02*
X669Y150D01*
X1Y149D02*
X8Y149D01*
X333Y149D02*
X339Y149D01*
X359Y149D02*
X366Y149D01*
X383Y149D02*
X416Y149D01*
X662Y149D02*
X669Y149D01*
X1Y148D02*
X8Y148D01*
X333Y148D02*
X339Y148D01*
X360Y148D02*
X367Y148D01*
X383Y148D02*
X417Y148D01*
X662Y148D02*
X669Y148D01*
X1Y147D02*
X8Y147D01*
X333Y147D02*
X339Y147D01*
X361Y147D02*
X367Y147D01*
X383Y147D02*
X416Y147D01*
X662Y147D02*
X669Y147D01*
X1Y146D02*
X8Y146D01*
X334Y146D02*
X338Y146D01*
X361Y146D02*
X366Y146D01*
X383Y146D02*
X416Y146D01*
X662Y146D02*
X669Y146D01*
X1Y145D02*
X8Y145D01*
X335Y145D02*
X337Y145D01*
X362Y145D02*
X365Y145D01*
X383Y145D02*
X415Y145D01*
X662Y145D02*
X669Y145D01*
X1Y144D02*
X8Y144D01*
X662Y144D02*
X669Y144D01*
X1Y143D02*
X8Y143D01*
X662Y143D02*
X669Y143D01*
X1Y142D02*
X8Y142D01*
X662Y142D02*
X669Y142D01*
X1Y141D02*
X8Y141D01*
X662Y141D02*
X669Y141D01*
X1Y140D02*
X8Y140D01*
X662Y140D02*
X669Y140D01*
X1Y139D02*
X8Y139D01*
X662Y139D02*
X669Y139D01*
X1Y138D02*
X8Y138D01*
X662Y138D02*
X669Y138D01*
X1Y137D02*
X8Y137D01*
X662Y137D02*
X669Y137D01*
X1Y136D02*
X8Y136D01*
X662Y136D02*
X669Y136D01*
X1Y135D02*
X8Y135D01*
X662Y135D02*
X669Y135D01*
X1Y134D02*
X8Y134D01*
X662Y134D02*
X669Y134D01*
X1Y133D02*
X8Y133D01*
X662Y133D02*
X669Y133D01*
X1Y132D02*
X8Y132D01*
X662Y132D02*
X669Y132D01*
X1Y131D02*
X8Y131D01*
X662Y131D02*
X669Y131D01*
X1Y130D02*
X8Y130D01*
X662Y130D02*
X669Y130D01*
X1Y129D02*
X8Y129D01*
X662Y129D02*
X669Y129D01*
X1Y128D02*
X8Y128D01*
X662Y128D02*
X669Y128D01*
X1Y127D02*
X8Y127D01*
X662Y127D02*
X669Y127D01*
X1Y126D02*
X8Y126D01*
X662Y126D02*
X669Y126D01*
X1Y125D02*
X8Y125D01*
X662Y125D02*
X669Y125D01*
X1Y124D02*
X8Y124D01*
X662Y124D02*
X669Y124D01*
X1Y123D02*
X8Y123D01*
X662Y123D02*
X669Y123D01*
X1Y122D02*
X8Y122D01*
X662Y122D02*
X669Y122D01*
X1Y121D02*
X8Y121D01*
X662Y121D02*
X669Y121D01*
X1Y120D02*
X8Y120D01*
X662Y120D02*
X669Y120D01*
X1Y119D02*
X8Y119D01*
X662Y119D02*
X669Y119D01*
X1Y118D02*
X8Y118D01*
X662Y118D02*
X669Y118D01*
X1Y117D02*
X8Y117D01*
X662Y117D02*
X669Y117D01*
X1Y116D02*
X8Y116D01*
X662Y116D02*
X669Y116D01*
X1Y115D02*
X8Y115D01*
X662Y115D02*
X669Y115D01*
X1Y114D02*
X8Y114D01*
X662Y114D02*
X669Y114D01*
X1Y113D02*
X8Y113D01*
X662Y113D02*
X669Y113D01*
X1Y112D02*
X8Y112D01*
X662Y112D02*
X669Y112D01*
X1Y111D02*
X8Y111D01*
X662Y111D02*
X669Y111D01*
X1Y110D02*
X8Y110D01*
X662Y110D02*
X669Y110D01*
X1Y109D02*
X8Y109D01*
X662Y109D02*
X669Y109D01*
X1Y108D02*
X8Y108D01*
X662Y108D02*
X669Y108D01*
X1Y107D02*
X8Y107D01*
X662Y107D02*
X669Y107D01*
X1Y106D02*
X8Y106D01*
X662Y106D02*
X669Y106D01*
X1Y105D02*
X8Y105D01*
X662Y105D02*
X669Y105D01*
X1Y104D02*
X8Y104D01*
X662Y104D02*
X669Y104D01*
X1Y103D02*
X8Y103D01*
X662Y103D02*
X669Y103D01*
X1Y102D02*
X8Y102D01*
X662Y102D02*
X669Y102D01*
X1Y101D02*
X8Y101D01*
X662Y101D02*
X669Y101D01*
X1Y100D02*
X8Y100D01*
X337Y100D02*
X360Y100D01*
X662Y100D02*
X669Y100D01*
X1Y99D02*
X8Y99D01*
X335Y99D02*
X362Y99D01*
X662Y99D02*
X669Y99D01*
X1Y98D02*
X8Y98D01*
X334Y98D02*
X363Y98D01*
X662Y98D02*
X669Y98D01*
X1Y97D02*
X8Y97D01*
X333Y97D02*
X364Y97D01*
X662Y97D02*
X669Y97D01*
X1Y96D02*
X8Y96D01*
X333Y96D02*
X364Y96D01*
X662Y96D02*
X669Y96D01*
X1Y95D02*
X8Y95D01*
X332Y95D02*
X365Y95D01*
X662Y95D02*
X669Y95D01*
X1Y94D02*
X8Y94D01*
X332Y94D02*
X365Y94D01*
X662Y94D02*
X669Y94D01*
X1Y93D02*
X8Y93D01*
X332Y93D02*
X338Y93D01*
X359Y93D02*
X366Y93D01*
X662Y93D02*
X669Y93D01*
X1Y92D02*
X8Y92D01*
X332Y92D02*
X339Y92D01*
X360Y92D02*
X366Y92D01*
X662Y92D02*
X669Y92D01*
X1Y91D02*
X8Y91D01*
X332Y91D02*
X339Y91D01*
X360Y91D02*
X366Y91D01*
X662Y91D02*
X669Y91D01*
X1Y90D02*
X8Y90D01*
X333Y90D02*
X340Y90D01*
X360Y90D02*
X365Y90D01*
X662Y90D02*
X669Y90D01*
X1Y89D02*
X8Y89D01*
X333Y89D02*
X341Y89D01*
X361Y89D02*
X365Y89D01*
X662Y89D02*
X669Y89D01*
X1Y88D02*
X8Y88D01*
X334Y88D02*
X342Y88D01*
X363Y88D02*
X363Y88D01*
X662Y88D02*
X669Y88D01*
X1Y87D02*
X8Y87D01*
X335Y87D02*
X343Y87D01*
X662Y87D02*
X669Y87D01*
X1Y86D02*
X8Y86D01*
X335Y86D02*
X343Y86D01*
X394Y86D02*
X404Y86D01*
X435Y86D02*
X435Y86D01*
X450Y86D02*
X455Y86D01*
X491Y86D02*
X507Y86D01*
X544Y86D02*
X554Y86D01*
X585Y86D02*
X585Y86D01*
X599Y86D02*
X606Y86D01*
X662Y86D02*
X669Y86D01*
X1Y85D02*
X8Y85D01*
X336Y85D02*
X344Y85D01*
X390Y85D02*
X407Y85D01*
X433Y85D02*
X437Y85D01*
X447Y85D02*
X459Y85D01*
X488Y85D02*
X510Y85D01*
X540Y85D02*
X557Y85D01*
X583Y85D02*
X587Y85D01*
X597Y85D02*
X610Y85D01*
X662Y85D02*
X669Y85D01*
X1Y84D02*
X8Y84D01*
X337Y84D02*
X345Y84D01*
X389Y84D02*
X409Y84D01*
X432Y84D02*
X438Y84D01*
X445Y84D02*
X461Y84D01*
X486Y84D02*
X512Y84D01*
X539Y84D02*
X559Y84D01*
X582Y84D02*
X588Y84D01*
X596Y84D02*
X611Y84D01*
X662Y84D02*
X669Y84D01*
X1Y83D02*
X8Y83D01*
X338Y83D02*
X346Y83D01*
X388Y83D02*
X410Y83D01*
X432Y83D02*
X438Y83D01*
X444Y83D02*
X462Y83D01*
X485Y83D02*
X513Y83D01*
X538Y83D02*
X560Y83D01*
X582Y83D02*
X588Y83D01*
X594Y83D02*
X612Y83D01*
X662Y83D02*
X669Y83D01*
X1Y82D02*
X8Y82D01*
X338Y82D02*
X346Y82D01*
X386Y82D02*
X411Y82D01*
X432Y82D02*
X438Y82D01*
X442Y82D02*
X463Y82D01*
X484Y82D02*
X514Y82D01*
X536Y82D02*
X561Y82D01*
X582Y82D02*
X588Y82D01*
X593Y82D02*
X613Y82D01*
X662Y82D02*
X669Y82D01*
X1Y81D02*
X8Y81D01*
X339Y81D02*
X347Y81D01*
X385Y81D02*
X412Y81D01*
X432Y81D02*
X438Y81D01*
X440Y81D02*
X463Y81D01*
X484Y81D02*
X515Y81D01*
X535Y81D02*
X562Y81D01*
X582Y81D02*
X588Y81D01*
X592Y81D02*
X614Y81D01*
X662Y81D02*
X669Y81D01*
X1Y80D02*
X8Y80D01*
X340Y80D02*
X348Y80D01*
X384Y80D02*
X413Y80D01*
X432Y80D02*
X464Y80D01*
X483Y80D02*
X515Y80D01*
X534Y80D02*
X563Y80D01*
X582Y80D02*
X588Y80D01*
X591Y80D02*
X615Y80D01*
X662Y80D02*
X669Y80D01*
X1Y79D02*
X8Y79D01*
X341Y79D02*
X349Y79D01*
X384Y79D02*
X393Y79D01*
X404Y79D02*
X414Y79D01*
X432Y79D02*
X449Y79D01*
X456Y79D02*
X464Y79D01*
X483Y79D02*
X490Y79D01*
X507Y79D02*
X515Y79D01*
X534Y79D02*
X543Y79D01*
X554Y79D02*
X564Y79D01*
X582Y79D02*
X588Y79D01*
X590Y79D02*
X600Y79D01*
X607Y79D02*
X615Y79D01*
X662Y79D02*
X669Y79D01*
X1Y78D02*
X8Y78D01*
X342Y78D02*
X350Y78D01*
X383Y78D02*
X391Y78D01*
X407Y78D02*
X415Y78D01*
X432Y78D02*
X448Y78D01*
X458Y78D02*
X465Y78D01*
X483Y78D02*
X489Y78D01*
X509Y78D02*
X514Y78D01*
X533Y78D02*
X541Y78D01*
X556Y78D02*
X565Y78D01*
X582Y78D02*
X598Y78D01*
X609Y78D02*
X615Y78D01*
X662Y78D02*
X669Y78D01*
X1Y77D02*
X8Y77D01*
X342Y77D02*
X350Y77D01*
X383Y77D02*
X390Y77D01*
X408Y77D02*
X415Y77D01*
X432Y77D02*
X446Y77D01*
X458Y77D02*
X465Y77D01*
X483Y77D02*
X489Y77D01*
X510Y77D02*
X514Y77D01*
X533Y77D02*
X540Y77D01*
X558Y77D02*
X565Y77D01*
X582Y77D02*
X597Y77D01*
X609Y77D02*
X616Y77D01*
X662Y77D02*
X669Y77D01*
X1Y76D02*
X8Y76D01*
X343Y76D02*
X351Y76D01*
X382Y76D02*
X389Y76D01*
X409Y76D02*
X415Y76D01*
X432Y76D02*
X445Y76D01*
X459Y76D02*
X465Y76D01*
X483Y76D02*
X489Y76D01*
X532Y76D02*
X539Y76D01*
X559Y76D02*
X565Y76D01*
X582Y76D02*
X596Y76D01*
X610Y76D02*
X616Y76D01*
X662Y76D02*
X669Y76D01*
X1Y75D02*
X8Y75D01*
X344Y75D02*
X352Y75D01*
X382Y75D02*
X389Y75D01*
X409Y75D02*
X416Y75D01*
X432Y75D02*
X443Y75D01*
X459Y75D02*
X465Y75D01*
X483Y75D02*
X491Y75D01*
X532Y75D02*
X538Y75D01*
X559Y75D02*
X566Y75D01*
X582Y75D02*
X595Y75D01*
X610Y75D02*
X616Y75D01*
X662Y75D02*
X669Y75D01*
X1Y74D02*
X8Y74D01*
X345Y74D02*
X353Y74D01*
X382Y74D02*
X388Y74D01*
X410Y74D02*
X416Y74D01*
X432Y74D02*
X442Y74D01*
X459Y74D02*
X465Y74D01*
X484Y74D02*
X493Y74D01*
X532Y74D02*
X538Y74D01*
X560Y74D02*
X566Y74D01*
X582Y74D02*
X594Y74D01*
X610Y74D02*
X616Y74D01*
X662Y74D02*
X669Y74D01*
X1Y73D02*
X8Y73D01*
X345Y73D02*
X353Y73D01*
X382Y73D02*
X388Y73D01*
X410Y73D02*
X416Y73D01*
X432Y73D02*
X440Y73D01*
X459Y73D02*
X465Y73D01*
X484Y73D02*
X496Y73D01*
X532Y73D02*
X538Y73D01*
X560Y73D02*
X566Y73D01*
X582Y73D02*
X593Y73D01*
X610Y73D02*
X615Y73D01*
X662Y73D02*
X669Y73D01*
X1Y72D02*
X8Y72D01*
X346Y72D02*
X354Y72D01*
X382Y72D02*
X388Y72D01*
X410Y72D02*
X416Y72D01*
X432Y72D02*
X439Y72D01*
X459Y72D02*
X465Y72D01*
X485Y72D02*
X498Y72D01*
X532Y72D02*
X538Y72D01*
X560Y72D02*
X566Y72D01*
X582Y72D02*
X591Y72D01*
X610Y72D02*
X615Y72D01*
X662Y72D02*
X669Y72D01*
X1Y71D02*
X8Y71D01*
X347Y71D02*
X355Y71D01*
X382Y71D02*
X388Y71D01*
X410Y71D02*
X416Y71D01*
X432Y71D02*
X438Y71D01*
X459Y71D02*
X465Y71D01*
X486Y71D02*
X500Y71D01*
X532Y71D02*
X538Y71D01*
X560Y71D02*
X566Y71D01*
X582Y71D02*
X590Y71D01*
X611Y71D02*
X614Y71D01*
X662Y71D02*
X669Y71D01*
X1Y70D02*
X8Y70D01*
X348Y70D02*
X356Y70D01*
X382Y70D02*
X388Y70D01*
X410Y70D02*
X416Y70D01*
X432Y70D02*
X438Y70D01*
X459Y70D02*
X465Y70D01*
X487Y70D02*
X503Y70D01*
X532Y70D02*
X538Y70D01*
X560Y70D02*
X566Y70D01*
X582Y70D02*
X589Y70D01*
X662Y70D02*
X669Y70D01*
X1Y69D02*
X8Y69D01*
X349Y69D02*
X357Y69D01*
X382Y69D02*
X388Y69D01*
X410Y69D02*
X416Y69D01*
X432Y69D02*
X438Y69D01*
X459Y69D02*
X465Y69D01*
X488Y69D02*
X505Y69D01*
X532Y69D02*
X538Y69D01*
X560Y69D02*
X566Y69D01*
X582Y69D02*
X588Y69D01*
X662Y69D02*
X669Y69D01*
X1Y68D02*
X8Y68D01*
X349Y68D02*
X357Y68D01*
X382Y68D02*
X416Y68D01*
X432Y68D02*
X438Y68D01*
X459Y68D02*
X465Y68D01*
X491Y68D02*
X507Y68D01*
X532Y68D02*
X538Y68D01*
X560Y68D02*
X566Y68D01*
X582Y68D02*
X588Y68D01*
X662Y68D02*
X669Y68D01*
X1Y67D02*
X8Y67D01*
X350Y67D02*
X358Y67D01*
X382Y67D02*
X416Y67D01*
X432Y67D02*
X438Y67D01*
X459Y67D02*
X465Y67D01*
X493Y67D02*
X509Y67D01*
X532Y67D02*
X538Y67D01*
X560Y67D02*
X566Y67D01*
X582Y67D02*
X588Y67D01*
X662Y67D02*
X669Y67D01*
X1Y66D02*
X8Y66D01*
X351Y66D02*
X359Y66D01*
X382Y66D02*
X416Y66D01*
X432Y66D02*
X438Y66D01*
X459Y66D02*
X465Y66D01*
X495Y66D02*
X511Y66D01*
X532Y66D02*
X538Y66D01*
X560Y66D02*
X566Y66D01*
X582Y66D02*
X588Y66D01*
X662Y66D02*
X669Y66D01*
X1Y65D02*
X8Y65D01*
X352Y65D02*
X360Y65D01*
X382Y65D02*
X416Y65D01*
X432Y65D02*
X438Y65D01*
X459Y65D02*
X465Y65D01*
X498Y65D02*
X512Y65D01*
X532Y65D02*
X538Y65D01*
X560Y65D02*
X566Y65D01*
X582Y65D02*
X588Y65D01*
X662Y65D02*
X669Y65D01*
X1Y64D02*
X8Y64D01*
X352Y64D02*
X360Y64D01*
X382Y64D02*
X416Y64D01*
X432Y64D02*
X438Y64D01*
X459Y64D02*
X465Y64D01*
X500Y64D02*
X513Y64D01*
X532Y64D02*
X538Y64D01*
X560Y64D02*
X566Y64D01*
X582Y64D02*
X588Y64D01*
X662Y64D02*
X669Y64D01*
X1Y63D02*
X8Y63D01*
X353Y63D02*
X361Y63D01*
X382Y63D02*
X415Y63D01*
X432Y63D02*
X438Y63D01*
X459Y63D02*
X465Y63D01*
X502Y63D02*
X514Y63D01*
X532Y63D02*
X538Y63D01*
X560Y63D02*
X566Y63D01*
X582Y63D02*
X588Y63D01*
X662Y63D02*
X669Y63D01*
X1Y62D02*
X8Y62D01*
X354Y62D02*
X362Y62D01*
X382Y62D02*
X414Y62D01*
X432Y62D02*
X438Y62D01*
X459Y62D02*
X465Y62D01*
X504Y62D02*
X514Y62D01*
X532Y62D02*
X538Y62D01*
X560Y62D02*
X566Y62D01*
X582Y62D02*
X588Y62D01*
X662Y62D02*
X669Y62D01*
X1Y61D02*
X8Y61D01*
X355Y61D02*
X363Y61D01*
X382Y61D02*
X388Y61D01*
X432Y61D02*
X438Y61D01*
X459Y61D02*
X465Y61D01*
X507Y61D02*
X515Y61D01*
X532Y61D02*
X538Y61D01*
X560Y61D02*
X566Y61D01*
X582Y61D02*
X588Y61D01*
X662Y61D02*
X669Y61D01*
X1Y60D02*
X8Y60D01*
X356Y60D02*
X364Y60D01*
X382Y60D02*
X388Y60D01*
X432Y60D02*
X438Y60D01*
X459Y60D02*
X465Y60D01*
X508Y60D02*
X515Y60D01*
X532Y60D02*
X538Y60D01*
X560Y60D02*
X566Y60D01*
X582Y60D02*
X588Y60D01*
X662Y60D02*
X669Y60D01*
X1Y59D02*
X8Y59D01*
X334Y59D02*
X336Y59D01*
X356Y59D02*
X364Y59D01*
X382Y59D02*
X388Y59D01*
X432Y59D02*
X438Y59D01*
X459Y59D02*
X465Y59D01*
X509Y59D02*
X515Y59D01*
X532Y59D02*
X538Y59D01*
X560Y59D02*
X566Y59D01*
X582Y59D02*
X588Y59D01*
X662Y59D02*
X669Y59D01*
X1Y58D02*
X8Y58D01*
X333Y58D02*
X338Y58D01*
X357Y58D02*
X365Y58D01*
X382Y58D02*
X388Y58D01*
X432Y58D02*
X438Y58D01*
X459Y58D02*
X465Y58D01*
X509Y58D02*
X516Y58D01*
X532Y58D02*
X538Y58D01*
X559Y58D02*
X566Y58D01*
X582Y58D02*
X588Y58D01*
X662Y58D02*
X669Y58D01*
X1Y57D02*
X8Y57D01*
X332Y57D02*
X338Y57D01*
X358Y57D02*
X365Y57D01*
X382Y57D02*
X389Y57D01*
X432Y57D02*
X438Y57D01*
X459Y57D02*
X465Y57D01*
X509Y57D02*
X516Y57D01*
X532Y57D02*
X539Y57D01*
X559Y57D02*
X565Y57D01*
X582Y57D02*
X588Y57D01*
X662Y57D02*
X669Y57D01*
X1Y56D02*
X8Y56D01*
X332Y56D02*
X338Y56D01*
X359Y56D02*
X366Y56D01*
X383Y56D02*
X390Y56D01*
X432Y56D02*
X438Y56D01*
X459Y56D02*
X465Y56D01*
X484Y56D02*
X486Y56D01*
X509Y56D02*
X515Y56D01*
X533Y56D02*
X540Y56D01*
X558Y56D02*
X565Y56D01*
X582Y56D02*
X588Y56D01*
X662Y56D02*
X669Y56D01*
X1Y55D02*
X8Y55D01*
X332Y55D02*
X338Y55D01*
X359Y55D02*
X366Y55D01*
X383Y55D02*
X391Y55D01*
X432Y55D02*
X438Y55D01*
X460Y55D02*
X465Y55D01*
X483Y55D02*
X488Y55D01*
X509Y55D02*
X515Y55D01*
X533Y55D02*
X541Y55D01*
X556Y55D02*
X565Y55D01*
X582Y55D02*
X588Y55D01*
X662Y55D02*
X669Y55D01*
X1Y54D02*
X8Y54D01*
X332Y54D02*
X340Y54D01*
X359Y54D02*
X366Y54D01*
X384Y54D02*
X393Y54D01*
X432Y54D02*
X438Y54D01*
X460Y54D02*
X466Y54D01*
X482Y54D02*
X490Y54D01*
X507Y54D02*
X515Y54D01*
X533Y54D02*
X543Y54D01*
X555Y54D02*
X564Y54D01*
X582Y54D02*
X588Y54D01*
X662Y54D02*
X669Y54D01*
X1Y53D02*
X8Y53D01*
X333Y53D02*
X366Y53D01*
X384Y53D02*
X414Y53D01*
X432Y53D02*
X438Y53D01*
X460Y53D02*
X466Y53D01*
X482Y53D02*
X515Y53D01*
X534Y53D02*
X563Y53D01*
X582Y53D02*
X588Y53D01*
X662Y53D02*
X669Y53D01*
X1Y52D02*
X8Y52D01*
X333Y52D02*
X365Y52D01*
X385Y52D02*
X415Y52D01*
X432Y52D02*
X438Y52D01*
X460Y52D02*
X466Y52D01*
X482Y52D02*
X514Y52D01*
X535Y52D02*
X563Y52D01*
X582Y52D02*
X588Y52D01*
X662Y52D02*
X669Y52D01*
X1Y51D02*
X8Y51D01*
X334Y51D02*
X365Y51D01*
X386Y51D02*
X416Y51D01*
X432Y51D02*
X438Y51D01*
X460Y51D02*
X466Y51D01*
X483Y51D02*
X513Y51D01*
X536Y51D02*
X561Y51D01*
X582Y51D02*
X588Y51D01*
X662Y51D02*
X669Y51D01*
X1Y50D02*
X8Y50D01*
X334Y50D02*
X364Y50D01*
X387Y50D02*
X416Y50D01*
X432Y50D02*
X438Y50D01*
X460Y50D02*
X466Y50D01*
X484Y50D02*
X513Y50D01*
X537Y50D02*
X560Y50D01*
X582Y50D02*
X588Y50D01*
X662Y50D02*
X669Y50D01*
X1Y49D02*
X8Y49D01*
X335Y49D02*
X363Y49D01*
X388Y49D02*
X415Y49D01*
X432Y49D02*
X438Y49D01*
X460Y49D02*
X465Y49D01*
X485Y49D02*
X511Y49D01*
X538Y49D02*
X559Y49D01*
X582Y49D02*
X588Y49D01*
X662Y49D02*
X669Y49D01*
X1Y48D02*
X8Y48D01*
X337Y48D02*
X362Y48D01*
X390Y48D02*
X415Y48D01*
X433Y48D02*
X437Y48D01*
X461Y48D02*
X465Y48D01*
X487Y48D02*
X510Y48D01*
X540Y48D02*
X558Y48D01*
X583Y48D02*
X587Y48D01*
X662Y48D02*
X669Y48D01*
X1Y47D02*
X8Y47D01*
X339Y47D02*
X360Y47D01*
X392Y47D02*
X414Y47D01*
X434Y47D02*
X436Y47D01*
X462Y47D02*
X463Y47D01*
X490Y47D02*
X507Y47D01*
X543Y47D02*
X555Y47D01*
X584Y47D02*
X586Y47D01*
X662Y47D02*
X669Y47D01*
X1Y46D02*
X8Y46D01*
X662Y46D02*
X669Y46D01*
X1Y45D02*
X8Y45D01*
X662Y45D02*
X669Y45D01*
X1Y44D02*
X8Y44D01*
X662Y44D02*
X669Y44D01*
X1Y43D02*
X8Y43D01*
X662Y43D02*
X669Y43D01*
X1Y42D02*
X8Y42D01*
X662Y42D02*
X669Y42D01*
X1Y41D02*
X8Y41D01*
X662Y41D02*
X669Y41D01*
X1Y40D02*
X8Y40D01*
X662Y40D02*
X669Y40D01*
X1Y39D02*
X8Y39D01*
X662Y39D02*
X669Y39D01*
X1Y38D02*
X8Y38D01*
X662Y38D02*
X669Y38D01*
X1Y37D02*
X8Y37D01*
X662Y37D02*
X669Y37D01*
X1Y36D02*
X8Y36D01*
X662Y36D02*
X669Y36D01*
X1Y35D02*
X8Y35D01*
X662Y35D02*
X669Y35D01*
X1Y34D02*
X8Y34D01*
X662Y34D02*
X669Y34D01*
X1Y33D02*
X8Y33D01*
X662Y33D02*
X669Y33D01*
X1Y32D02*
X8Y32D01*
X662Y32D02*
X669Y32D01*
X1Y31D02*
X8Y31D01*
X662Y31D02*
X669Y31D01*
X1Y30D02*
X8Y30D01*
X662Y30D02*
X669Y30D01*
X1Y29D02*
X8Y29D01*
X662Y29D02*
X669Y29D01*
X1Y28D02*
X8Y28D01*
X662Y28D02*
X669Y28D01*
X1Y27D02*
X8Y27D01*
X662Y27D02*
X669Y27D01*
X1Y26D02*
X8Y26D01*
X662Y26D02*
X669Y26D01*
X1Y25D02*
X8Y25D01*
X662Y25D02*
X669Y25D01*
X1Y24D02*
X8Y24D01*
X662Y24D02*
X669Y24D01*
X1Y23D02*
X8Y23D01*
X662Y23D02*
X669Y23D01*
X1Y22D02*
X8Y22D01*
X662Y22D02*
X669Y22D01*
X1Y21D02*
X8Y21D01*
X662Y21D02*
X669Y21D01*
X1Y20D02*
X8Y20D01*
X662Y20D02*
X669Y20D01*
X1Y19D02*
X8Y19D01*
X662Y19D02*
X669Y19D01*
X1Y18D02*
X8Y18D01*
X662Y18D02*
X669Y18D01*
X1Y17D02*
X8Y17D01*
X662Y17D02*
X669Y17D01*
X1Y16D02*
X8Y16D01*
X662Y16D02*
X669Y16D01*
X1Y15D02*
X8Y15D01*
X662Y15D02*
X669Y15D01*
X1Y14D02*
X8Y14D01*
X662Y14D02*
X669Y14D01*
X1Y13D02*
X8Y13D01*
X662Y13D02*
X669Y13D01*
X1Y12D02*
X8Y12D01*
X662Y12D02*
X669Y12D01*
X1Y11D02*
X8Y11D01*
X662Y11D02*
X669Y11D01*
X1Y10D02*
X8Y10D01*
X662Y10D02*
X669Y10D01*
X1Y9D02*
X8Y9D01*
X662Y9D02*
X669Y9D01*
X1Y8D02*
X669Y8D01*
X1Y7D02*
X669Y7D01*
X1Y6D02*
X669Y6D01*
X1Y5D02*
X669Y5D01*
X1Y4D02*
X669Y4D01*
X1Y3D02*
X669Y3D01*
X1Y2D02*
X669Y2D01*
X1Y1D02*
X669Y1D01*
D02*
G04 End of Silk1*
M02*